<?xml version="1.0" encoding="UTF-8"?>
<!DOCTYPE svg PUBLIC "-//W3C//DTD SVG 1.1//EN" "http://www.w3.org/Graphics/SVG/1.1/DTD/svg11.dtd">
<svg xmlns="http://www.w3.org/2000/svg" version="1.1" width="460px" height="460px" style="shape-rendering:geometricPrecision; text-rendering:geometricPrecision; image-rendering:optimizeQuality; fill-rule:evenodd; clip-rule:evenodd" xmlns:xlink="http://www.w3.org/1999/xlink">
<g><path style="opacity:0.004" fill="#fefffe" d="M 127.5,15.5 C 128.833,16.1667 128.833,16.1667 127.5,15.5 Z"/></g>
<g><path style="opacity:0.004" fill="#fefffe" d="M 310.5,16.5 C 311.833,17.1667 311.833,17.1667 310.5,16.5 Z"/></g>
<g><path style="opacity:0.004" fill="#fefffe" d="M 257.5,30.5 C 258.833,31.1667 258.833,31.1667 257.5,30.5 Z"/></g>
<g><path style="opacity:0.004" fill="#fefffe" d="M 161.5,33.5 C 162.833,34.1667 162.833,34.1667 161.5,33.5 Z"/></g>
<g><path style="opacity:0.004" fill="#fefffe" d="M 267.5,33.5 C 268.833,34.1667 268.833,34.1667 267.5,33.5 Z"/></g>
<g><path style="opacity:0.004" fill="#fefffe" d="M 153.5,35.5 C 154.833,36.1667 154.833,36.1667 153.5,35.5 Z"/></g>
<g><path style="opacity:0.004" fill="#fefffe" d="M 283.5,50.5 C 284.833,51.1667 284.833,51.1667 283.5,50.5 Z"/></g>
<g><path style="opacity:0.004" fill="#fefffe" d="M 394.5,57.5 C 395.833,58.1667 395.833,58.1667 394.5,57.5 Z"/></g>
<g><path style="opacity:0.004" fill="#fefffe" d="M 208.5,61.5 C 209.833,62.1667 209.833,62.1667 208.5,61.5 Z"/></g>
<g><path style="opacity:0.004" fill="#fefffe" d="M 88.5,64.5 C 89.8333,65.1667 89.8333,65.1667 88.5,64.5 Z"/></g>
<g><path style="opacity:0.007" fill="#e2e2e2" d="M 172.5,68.5 C 175.184,67.2679 178.017,67.2679 181,68.5C 182.595,69.3557 183.428,70.6891 183.5,72.5C 181.887,71.3077 180.22,70.3077 178.5,69.5C 176.735,68.5386 174.735,68.2053 172.5,68.5 Z"/></g>
<g><path style="opacity:0.004" fill="#fefffe" d="M 75.5,68.5 C 76.8333,69.1667 76.8333,69.1667 75.5,68.5 Z"/></g>
<g><path style="opacity:0.006" fill="#ececec" d="M 172.5,68.5 C 172.5,68.8333 172.5,69.1667 172.5,69.5C 171.432,70.4345 170.099,70.7678 168.5,70.5C 168.082,69.7784 167.416,69.2784 166.5,69C 168.473,68.5045 170.473,68.3379 172.5,68.5 Z"/></g>
<g><path style="opacity:0.004" fill="#fefffe" d="M 148.5,70.5 C 149.833,71.1667 149.833,71.1667 148.5,70.5 Z"/></g>
<g><path style="opacity:0.005" fill="#e0e0e0" d="M 162.5,71.5 C 161.07,72.5375 159.403,73.2041 157.5,73.5C 158.511,70.7698 160.178,70.1032 162.5,71.5 Z"/></g>
<g><path style="opacity:1" fill="#141414" d="M 172.5,69.5 C 174.5,69.5 176.5,69.5 178.5,69.5C 180.22,70.3077 181.887,71.3077 183.5,72.5C 184.239,72.369 184.906,72.5357 185.5,73C 184.991,77.7039 183.991,82.2039 182.5,86.5C 181.549,87.9187 181.216,89.5853 181.5,91.5C 181.455,96.2116 179.122,98.5449 174.5,98.5C 173.5,98.8333 172.833,99.5 172.5,100.5C 166.594,103.419 161.26,107.085 156.5,111.5C 153.001,111.741 152.668,110.908 155.5,109C 153.86,108.652 152.527,109.152 151.5,110.5C 149.847,110.66 148.514,111.326 147.5,112.5C 146.833,112.5 146.5,112.833 146.5,113.5C 145.5,113.5 144.5,113.5 143.5,113.5C 142.448,113.351 141.448,113.517 140.5,114C 141.833,114.667 143.167,115.333 144.5,116C 143.584,116.278 142.918,116.778 142.5,117.5C 141.432,118.434 140.099,118.768 138.5,118.5C 137.209,118.263 136.209,118.596 135.5,119.5C 134.609,120.11 133.609,120.443 132.5,120.5C 130.302,120.409 129.969,121.075 131.5,122.5C 127.473,125.86 123.806,129.527 120.5,133.5C 120.631,132.761 120.464,132.094 120,131.5C 117.609,132.39 116.109,134.057 115.5,136.5C 114.662,136.842 114.328,137.508 114.5,138.5C 114.167,138.5 113.833,138.5 113.5,138.5C 112.167,138.5 111.5,139.167 111.5,140.5C 111.5,140.833 111.5,141.167 111.5,141.5C 110.026,142.436 109.026,143.77 108.5,145.5C 108.167,145.5 107.833,145.5 107.5,145.5C 106.599,146.29 105.932,147.29 105.5,148.5C 105.5,148.833 105.5,149.167 105.5,149.5C 103.864,150.749 102.697,152.416 102,154.5C 98.3322,162.674 95.1655,171.007 92.5,179.5C 87.956,184.051 84.6226,189.384 82.5,195.5C 81.2325,203.638 80.5658,211.971 80.5,220.5C 80.5,222.833 80.5,225.167 80.5,227.5C 80.8016,230.059 80.4682,232.393 79.5,234.5C 79.7845,232.585 79.4511,230.919 78.5,229.5C 78.5,228.5 78.5,227.5 78.5,226.5C 78.5987,223.763 78.2653,221.096 77.5,218.5C 77.4928,215.962 77.1595,213.462 76.5,211C 76.9241,202.041 77.9241,193.208 79.5,184.5C 79.5,183.5 79.5,182.5 79.5,181.5C 79.5569,180.391 79.8902,179.391 80.5,178.5C 80.5,178.167 80.5,177.833 80.5,177.5C 81.5375,176.07 82.2041,174.403 82.5,172.5C 82.5,172.167 82.5,171.833 82.5,171.5C 83.3446,170.329 84.0113,168.995 84.5,167.5C 84.5,167.167 84.5,166.833 84.5,166.5C 84.8333,165.833 85.1667,165.167 85.5,164.5C 85.5,164.167 85.5,163.833 85.5,163.5C 86.1667,163.5 86.5,163.167 86.5,162.5C 87.3382,162.842 87.6716,163.508 87.5,164.5C 87.3354,167.518 87.502,170.518 88,173.5C 92.6755,161.156 98.6755,149.49 106,138.5C 106.667,137.833 106.667,137.167 106,136.5C 103.297,139.538 100.297,142.205 97,144.5C 96.1301,143.892 95.6301,143.059 95.5,142C 99.5957,130.97 105.596,121.136 113.5,112.5C 114.167,112.5 114.5,112.167 114.5,111.5C 114.833,111.5 115.167,111.5 115.5,111.5C 116.289,111.217 116.956,110.717 117.5,110C 116.316,108.855 116.316,107.688 117.5,106.5C 118.419,103.911 120.086,101.911 122.5,100.5C 125.5,99.5 127.5,97.5 128.5,94.5C 132.311,91.7498 135.978,88.7498 139.5,85.5C 141.027,85.573 142.027,84.9063 142.5,83.5C 146.687,78.9094 151.687,75.576 157.5,73.5C 159.403,73.2041 161.07,72.5375 162.5,71.5C 164.435,70.8505 166.435,70.5172 168.5,70.5C 170.099,70.7678 171.432,70.4345 172.5,69.5 Z"/></g>
<g><path style="opacity:0.004" fill="#fefffe" d="M 144.5,74.5 C 145.833,75.1667 145.833,75.1667 144.5,74.5 Z"/></g>
<g><path style="opacity:0.004" fill="#fefffe" d="M 237.5,79.5 C 238.833,80.1667 238.833,80.1667 237.5,79.5 Z"/></g>
<g><path style="opacity:0.004" fill="#fefffe" d="M 11.5,83.5 C 12.8333,84.1667 12.8333,84.1667 11.5,83.5 Z"/></g>
<g><path style="opacity:0.573" fill="#8d8d8d" d="M 142.5,83.5 C 142.027,84.9063 141.027,85.573 139.5,85.5C 139.973,84.0937 140.973,83.427 142.5,83.5 Z"/></g>
<g><path style="opacity:0.005" fill="#dfdfdf" d="M 182.5,86.5 C 184.18,88.7264 183.847,90.3931 181.5,91.5C 181.216,89.5853 181.549,87.9187 182.5,86.5 Z"/></g>
<g><path style="opacity:0.753" fill="#707070" d="M 128.5,94.5 C 127.5,97.5 125.5,99.5 122.5,100.5C 124.167,98.1667 126.167,96.1667 128.5,94.5 Z"/></g>
<g><path style="opacity:0.004" fill="#e2e2e2" d="M 174.5,98.5 C 175.66,100.203 174.993,100.869 172.5,100.5C 172.833,99.5 173.5,98.8333 174.5,98.5 Z"/></g>
<g><path style="opacity:0.004" fill="#fefffe" d="M 258.5,99.5 C 259.833,100.167 259.833,100.167 258.5,99.5 Z"/></g>
<g><path style="opacity:0.004" fill="#fefffe" d="M 262.5,100.5 C 263.833,101.167 263.833,101.167 262.5,100.5 Z"/></g>
<g><path style="opacity:0.004" fill="#fefffe" d="M 115.5,104.5 C 116.833,105.167 116.833,105.167 115.5,104.5 Z"/></g>
<g><path style="opacity:0.004" fill="#fefffe" d="M 115.5,105.5 C 115.5,105.833 115.5,106.167 115.5,106.5C 114.83,106.019 114.83,105.685 115.5,105.5 Z"/></g>
<g><path style="opacity:0.027" fill="#dadbda" d="M 272.5,108.5 C 271.833,107.167 271.833,107.167 272.5,108.5 Z"/></g>
<g><path style="opacity:0.349" fill="#b5b5b5" d="M 115.5,106.5 C 116.167,106.5 116.833,106.5 117.5,106.5C 116.316,107.688 116.316,108.855 117.5,110C 116.956,110.717 116.289,111.217 115.5,111.5C 115.672,110.508 115.338,109.842 114.5,109.5C 115.11,108.609 115.443,107.609 115.5,106.5 Z"/></g>
<g><path style="opacity:0.005" fill="#fefffe" d="M 114.5,109.5 C 114.5,110.167 114.5,110.833 114.5,111.5C 113.833,111.5 113.5,111.833 113.5,112.5C 112.285,111.221 112.618,110.221 114.5,109.5 Z"/></g>
<g><path style="opacity:0.008" fill="#fefffe" d="M 283.5,109.5 C 284.833,110.167 284.833,110.167 283.5,109.5 Z"/></g>
<g><path style="opacity:0.008" fill="#e2e2e2" d="M 151.5,110.5 C 151.5,110.833 151.5,111.167 151.5,111.5C 150.167,111.833 150.167,112.167 151.5,112.5C 150.494,113.396 150.494,114.062 151.5,114.5C 149.099,115.539 146.765,116.873 144.5,118.5C 143.817,118.137 143.15,117.804 142.5,117.5C 142.918,116.778 143.584,116.278 144.5,116C 143.167,115.333 141.833,114.667 140.5,114C 141.448,113.517 142.448,113.351 143.5,113.5C 144.5,114.833 145.5,114.833 146.5,113.5C 148.224,113.539 148.557,113.206 147.5,112.5C 148.514,111.326 149.847,110.66 151.5,110.5 Z"/></g>
<g><path style="opacity:0.867" fill="#676767" d="M 156.5,111.5 C 155.833,112.167 155.167,112.833 154.5,113.5C 153.609,114.11 152.609,114.443 151.5,114.5C 150.494,114.062 150.494,113.396 151.5,112.5C 151.5,112.167 151.5,111.833 151.5,111.5C 152.833,111.167 152.833,110.833 151.5,110.5C 152.527,109.152 153.86,108.652 155.5,109C 152.668,110.908 153.001,111.741 156.5,111.5 Z"/></g>
<g><path style="opacity:0.867" fill="#8a8a8a" d="M 272.5,108.5 C 276.319,108.414 279.985,109.081 283.5,110.5C 285.292,111.309 287.292,111.809 289.5,112C 288.944,112.383 288.611,112.883 288.5,113.5C 286.666,112.506 284.999,112.506 283.5,113.5C 279.646,112.07 275.979,110.403 272.5,108.5 Z"/></g>
<g><path style="opacity:0.004" fill="#fefffe" d="M 154.5,113.5 C 155.833,114.167 155.833,114.167 154.5,113.5 Z"/></g>
<g><path style="opacity:0.004" fill="#d2d2d2" d="M 288.5,113.5 C 290.199,113.34 291.866,113.506 293.5,114C 292.944,114.383 292.611,114.883 292.5,115.5C 291.005,115.011 289.671,114.345 288.5,113.5 Z"/></g>
<g><path style="opacity:0.009" fill="#e3e3e3" d="M 293.5,115.5 C 294.873,115.343 296.207,115.51 297.5,116C 296.944,116.383 296.611,116.883 296.5,117.5C 295.29,117.068 294.29,116.401 293.5,115.5 Z"/></g>
<g><path style="opacity:0.004" fill="#dddddd" d="M 135.5,119.5 C 136.209,118.596 137.209,118.263 138.5,118.5C 139.66,120.203 138.993,120.869 136.5,120.5C 136.5,119.833 136.167,119.5 135.5,119.5 Z"/></g>
<g><path style="opacity:0.004" fill="#fefffe" d="M 136.5,120.5 C 135.833,121.167 135.833,121.167 136.5,120.5 Z"/></g>
<g><path style="opacity:0.008" fill="#d4d4d4" d="M 132.5,120.5 C 135.258,121.967 134.925,122.633 131.5,122.5C 129.969,121.075 130.302,120.409 132.5,120.5 Z"/></g>
<g><path style="opacity:0.006" fill="#f1f1f1" d="M 308.5,123.5 C 309.833,123.5 310.5,124.167 310.5,125.5C 309.5,125.167 308.833,124.5 308.5,123.5 Z"/></g>
<g><path style="opacity:0.004" fill="#fefffe" d="M 247.5,125.5 C 248.833,126.167 248.833,126.167 247.5,125.5 Z"/></g>
<g><path style="opacity:0.004" fill="#fefffe" d="M 402.5,125.5 C 403.833,126.167 403.833,126.167 402.5,125.5 Z"/></g>
<g><path style="opacity:0.004" fill="#fefffe" d="M 415.5,126.5 C 416.833,127.167 416.833,127.167 415.5,126.5 Z"/></g>
<g><path style="opacity:0.033" fill="#cccccc" d="M 110.5,129.5 C 111.254,127.554 112.588,126.721 114.5,127C 113.529,128.481 112.196,129.315 110.5,129.5 Z"/></g>
<g><path style="opacity:0.004" fill="#fefffe" d="M 69.5,130.5 C 70.8333,131.167 70.8333,131.167 69.5,130.5 Z"/></g>
<g><path style="opacity:0.149" fill="#c1c1c1" d="M 110.5,129.5 C 110.5,130.167 110.833,130.5 111.5,130.5C 111.027,131.906 110.027,132.573 108.5,132.5C 108.932,131.29 109.599,130.29 110.5,129.5 Z"/></g>
<g><path style="opacity:0.075" fill="#d6d6d6" d="M 321.5,133.5 C 322.906,133.973 323.573,134.973 323.5,136.5C 322.094,136.027 321.427,135.027 321.5,133.5 Z"/></g>
<g><path style="opacity:0.02" fill="#bdbdbd" d="M 113.5,138.5 C 113.5,138.833 113.5,139.167 113.5,139.5C 112.833,139.833 112.167,140.167 111.5,140.5C 111.5,139.167 112.167,138.5 113.5,138.5 Z"/></g>
<g><path style="opacity:0.384" fill="#c2c2c2" d="M 111.5,141.5 C 112.167,141.5 112.833,141.5 113.5,141.5C 113.068,142.71 112.401,143.71 111.5,144.5C 110.884,143.798 110.884,142.798 111.5,141.5 Z"/></g>
<g><path style="opacity:0.949" fill="#3f3f3f" d="M 120.5,133.5 C 115.624,141.919 111.291,150.586 107.5,159.5C 105.612,161.794 104.278,164.461 103.5,167.5C 103.5,167.833 103.5,168.167 103.5,168.5C 102.542,170.302 101.875,172.302 101.5,174.5C 100.833,174.5 100.5,174.167 100.5,173.5C 100.5,172.5 100.5,171.5 100.5,170.5C 101.338,170.158 101.672,169.492 101.5,168.5C 101.833,167.167 102.167,165.833 102.5,164.5C 103.401,163.71 104.068,162.71 104.5,161.5C 104.5,160.833 104.5,160.167 104.5,159.5C 104.5,159.167 104.5,158.833 104.5,158.5C 105.167,158.5 105.5,158.167 105.5,157.5C 106.167,157.5 106.5,157.167 106.5,156.5C 106.433,155.041 106.766,153.708 107.5,152.5C 108.167,152.5 108.5,152.167 108.5,151.5C 108.5,151.167 108.5,150.833 108.5,150.5C 109.167,150.5 109.5,150.167 109.5,149.5C 109.5,149.167 109.5,148.833 109.5,148.5C 109.833,147.833 110.167,147.167 110.5,146.5C 110.833,145.833 111.167,145.167 111.5,144.5C 112.401,143.71 113.068,142.71 113.5,141.5C 113.5,140.833 113.5,140.167 113.5,139.5C 114.167,139.5 114.5,139.167 114.5,138.5C 115.338,138.158 115.672,137.492 115.5,136.5C 116.109,134.057 117.609,132.39 120,131.5C 120.464,132.094 120.631,132.761 120.5,133.5 Z"/></g>
<g><path style="opacity:0.007" fill="#f4f4f4" d="M 107.5,145.5 C 107.833,146.833 108.167,146.833 108.5,145.5C 109.167,145.833 109.833,146.167 110.5,146.5C 110.167,147.167 109.833,147.833 109.5,148.5C 108.167,148.833 108.167,149.167 109.5,149.5C 109.5,150.167 109.167,150.5 108.5,150.5C 107.167,150.833 107.167,151.167 108.5,151.5C 108.5,152.167 108.167,152.5 107.5,152.5C 105.952,152.179 105.285,151.179 105.5,149.5C 106.833,149.167 106.833,148.833 105.5,148.5C 105.932,147.29 106.599,146.29 107.5,145.5 Z"/></g>
<g><path style="opacity:0.004" fill="#fefffe" d="M 54.5,146.5 C 55.8333,147.167 55.8333,147.167 54.5,146.5 Z"/></g>
<g><path style="opacity:0.004" fill="#fefffe" d="M 185.5,148.5 C 186.833,149.167 186.833,149.167 185.5,148.5 Z"/></g>
<g><path style="opacity:0.004" fill="#f2f2f2" d="M 106.5,156.5 C 106.5,157.167 106.167,157.5 105.5,157.5C 104.833,157.5 104.167,157.5 103.5,157.5C 103.19,152.548 104.19,152.214 106.5,156.5 Z"/></g>
<g><path style="opacity:0.004" fill="#fefffe" d="M 240.5,156.5 C 241.833,157.167 241.833,157.167 240.5,156.5 Z"/></g>
<g><path style="opacity:0.005" fill="#fefffe" d="M 103.5,157.5 C 103.5,158.167 103.833,158.5 104.5,158.5C 104.5,158.833 104.5,159.167 104.5,159.5C 103.883,159.611 103.383,159.944 103,160.5C 102.26,159.251 102.427,158.251 103.5,157.5 Z"/></g>
<g><path style="opacity:0.006" fill="#dddddd" d="M 340.5,156.5 C 342.104,157.287 342.771,158.62 342.5,160.5C 341.326,159.486 340.66,158.153 340.5,156.5 Z"/></g>
<g><path style="opacity:0.004" fill="#fefffe" d="M 255.5,158.5 C 256.833,159.167 256.833,159.167 255.5,158.5 Z"/></g>
<g><path style="opacity:0.004" fill="#fefffe" d="M -0.5,161.5 C 0.833333,162.167 0.833333,162.167 -0.5,161.5 Z"/></g>
<g><path style="opacity:0.004" fill="#fefffe" d="M 33.5,161.5 C 34.8333,162.167 34.8333,162.167 33.5,161.5 Z"/></g>
<g><path style="opacity:0.718" fill="#989898" d="M 87.5,164.5 C 87.6716,163.508 87.3382,162.842 86.5,162.5C 86.5,163.167 86.1667,163.5 85.5,163.5C 84.2241,162.614 84.2241,161.614 85.5,160.5C 86.5237,159.147 87.857,158.48 89.5,158.5C 89.405,160.786 88.7384,162.786 87.5,164.5 Z"/></g>
<g><path style="opacity:0.01" fill="#dedede" d="M 104.5,161.5 C 104.068,162.71 103.401,163.71 102.5,164.5C 102.285,162.821 102.952,161.821 104.5,161.5 Z"/></g>
<g><path style="opacity:0.004" fill="#fefffe" d="M 295.5,163.5 C 296.833,164.167 296.833,164.167 295.5,163.5 Z"/></g>
<g><path style="opacity:0.007" fill="#d9d9d9" d="M 85.5,164.5 C 85.1667,165.167 84.8333,165.833 84.5,166.5C 83.1667,166.833 83.1667,167.167 84.5,167.5C 84.0113,168.995 83.3446,170.329 82.5,171.5C 82.5,169.167 82.5,166.833 82.5,164.5C 83.5,164.5 84.5,164.5 85.5,164.5 Z"/></g>
<g><path style="opacity:0.308" fill="#a1a1a1" d="M 107.5,159.5 C 104.12,174.175 101.453,188.842 99.5,203.5C 99.7678,201.901 99.4345,200.568 98.5,199.5C 99.6203,195.684 99.6203,192.017 98.5,188.5C 98.2627,187.209 98.596,186.209 99.5,185.5C 100.633,187.021 100.633,186.355 99.5,183.5C 99.5569,182.391 99.8902,181.391 100.5,180.5C 101.833,179.833 101.833,179.167 100.5,178.5C 100.672,177.508 100.338,176.842 99.5,176.5C 98.4931,174.523 98.4931,174.857 99.5,177.5C 98.9853,179.894 98.3186,182.228 97.5,184.5C 97.1667,184.5 96.8333,184.5 96.5,184.5C 97.5729,182.347 97.5729,180.347 96.5,178.5C 96.5172,176.435 96.8505,174.435 97.5,172.5C 98.1667,171.833 98.8333,171.167 99.5,170.5C 99.2627,171.791 99.596,172.791 100.5,173.5C 100.5,174.167 100.833,174.5 101.5,174.5C 101.875,172.302 102.542,170.302 103.5,168.5C 104.644,169.183 104.644,168.849 103.5,167.5C 104.278,164.461 105.612,161.794 107.5,159.5 Z"/></g>
<g><path style="opacity:0.004" fill="#fefffe" d="M 217.5,166.5 C 218.833,167.167 218.833,167.167 217.5,166.5 Z"/></g>
<g><path style="opacity:0.137" fill="#d1d1d1" d="M 101.5,168.5 C 101.672,169.492 101.338,170.158 100.5,170.5C 100.167,170.5 99.8333,170.5 99.5,170.5C 98.8333,171.167 98.1667,171.833 97.5,172.5C 98.3631,169.097 99.5298,165.764 101,162.5C 100.716,164.679 100.883,166.679 101.5,168.5 Z"/></g>
<g><path style="opacity:0.004" fill="#e3e3e3" d="M 346.5,167.5 C 348.048,167.821 348.715,168.821 348.5,170.5C 347.599,169.71 346.932,168.71 346.5,167.5 Z"/></g>
<g><path style="opacity:0.998" fill="#3d3d3d" d="M 288.5,113.5 C 289.671,114.345 291.005,115.011 292.5,115.5C 292.833,115.5 293.167,115.5 293.5,115.5C 294.29,116.401 295.29,117.068 296.5,117.5C 298.991,117.829 301.157,118.829 303,120.5C 303.333,120.167 303.667,119.833 304,119.5C 304.792,121.644 306.292,122.977 308.5,123.5C 308.833,124.5 309.5,125.167 310.5,125.5C 314.344,127.922 318.01,130.589 321.5,133.5C 321.427,135.027 322.094,136.027 323.5,136.5C 330.087,142.312 335.754,148.979 340.5,156.5C 340.66,158.153 341.326,159.486 342.5,160.5C 344.588,162.336 345.921,164.669 346.5,167.5C 346.932,168.71 347.599,169.71 348.5,170.5C 350.642,173.8 351.975,177.467 352.5,181.5C 352.932,182.71 353.599,183.71 354.5,184.5C 354.5,185.167 354.5,185.833 354.5,186.5C 354.66,188.153 355.326,189.486 356.5,190.5C 356.5,191.167 356.5,191.833 356.5,192.5C 356.875,194.698 357.542,196.698 358.5,198.5C 358.5,198.833 358.5,199.167 358.5,199.5C 358.448,201.903 358.781,204.236 359.5,206.5C 358.853,207.274 358.52,208.274 358.5,209.5C 359.599,216.148 360.099,222.814 360,229.5C 359.667,227.833 359.333,226.167 359,224.5C 358.83,233.343 358.33,242.01 357.5,250.5C 357.5,249.167 357.5,247.833 357.5,246.5C 357.5,238.5 357.5,230.5 357.5,222.5C 357.821,217.305 357.487,212.305 356.5,207.5C 351.073,181.479 339.406,158.645 321.5,139C 309.596,129.226 296.929,120.726 283.5,113.5C 284.999,112.506 286.666,112.506 288.5,113.5 Z"/></g>
<g><path style="opacity:0.009" fill="#e2e2e2" d="M 82.5,172.5 C 82.2041,174.403 81.5375,176.07 80.5,177.5C 80.1201,175.302 80.7868,173.635 82.5,172.5 Z"/></g>
<g><path style="opacity:0.004" fill="#fefffe" d="M 80.5,177.5 C 80.5,177.833 80.5,178.167 80.5,178.5C 79.6236,178.631 78.9569,178.298 78.5,177.5C 78.9698,176.537 79.6365,176.537 80.5,177.5 Z"/></g>
<g><path style="opacity:0.871" fill="#636363" d="M 99.5,176.5 C 100.338,176.842 100.672,177.508 100.5,178.5C 100.5,179.167 100.5,179.833 100.5,180.5C 99.8902,181.391 99.5569,182.391 99.5,183.5C 99.5,184.167 99.5,184.833 99.5,185.5C 98.596,186.209 98.2627,187.209 98.5,188.5C 98.5,189.5 98.5,190.5 98.5,191.5C 97.7321,192.263 97.2321,193.263 97,194.5C 96.8019,192.618 96.3019,190.952 95.5,189.5C 95.6716,188.508 95.3382,187.842 94.5,187.5C 94.5,186.833 94.1667,186.5 93.5,186.5C 93.7678,184.901 93.4345,183.568 92.5,182.5C 92.5,181.5 92.5,180.5 92.5,179.5C 93.4716,177.507 94.8049,177.174 96.5,178.5C 97.5729,180.347 97.5729,182.347 96.5,184.5C 96.8333,188.5 97.1667,188.5 97.5,184.5C 98.3186,182.228 98.9853,179.894 99.5,177.5C 99.5,177.167 99.5,176.833 99.5,176.5 Z"/></g>
<g><path style="opacity:0.004" fill="#fefffe" d="M 79.5,181.5 C 79.5,182.5 79.5,183.5 79.5,184.5C 77.0155,183.74 77.0155,182.74 79.5,181.5 Z"/></g>
<g><path style="opacity:0.008" fill="#ebebeb" d="M 352.5,181.5 C 354.048,181.821 354.715,182.821 354.5,184.5C 353.599,183.71 352.932,182.71 352.5,181.5 Z"/></g>
<g><path style="opacity:0.004" fill="#fefffe" d="M 88.5,186.5 C 89.7733,187.077 89.7733,187.743 88.5,188.5C 87.537,188.03 87.537,187.363 88.5,186.5 Z"/></g>
<g><path style="opacity:0.004" fill="#fefffe" d="M 5.5,187.5 C 6.83333,188.167 6.83333,188.167 5.5,187.5 Z"/></g>
<g><path style="opacity:0.006" fill="#e0e0e0" d="M 354.5,186.5 C 356.104,187.287 356.771,188.62 356.5,190.5C 355.326,189.486 354.66,188.153 354.5,186.5 Z"/></g>
<g><path style="opacity:0.204" fill="#a2a2a2" d="M 93.5,187.5 C 93.5,188.167 93.8333,188.5 94.5,188.5C 94.7678,190.099 94.4345,191.432 93.5,192.5C 93.6716,191.508 93.3382,190.842 92.5,190.5C 92.2627,189.209 92.596,188.209 93.5,187.5 Z"/></g>
<g><path style="opacity:0.012" fill="#dfdfdf" d="M 356.5,192.5 C 358.28,193.99 358.946,195.99 358.5,198.5C 357.542,196.698 356.875,194.698 356.5,192.5 Z"/></g>
<g><path style="opacity:0.427" fill="#b6b6b6" d="M 95.5,189.5 C 96.3019,190.952 96.8019,192.618 97,194.5C 97.2321,193.263 97.7321,192.263 98.5,191.5C 97.5565,194.999 97.5565,198.332 98.5,201.5C 98.7947,203.735 98.4614,205.735 97.5,207.5C 97.7678,205.901 97.4345,204.568 96.5,203.5C 96.6633,201.143 96.4966,198.81 96,196.5C 95.5172,197.448 95.3505,198.448 95.5,199.5C 95.1667,199.5 94.8333,199.5 94.5,199.5C 95.0508,196.193 95.3841,192.86 95.5,189.5 Z"/></g>
<g><path style="opacity:0.008" fill="#cacaca" d="M 92.5,193.5 C 92.2627,194.791 92.596,195.791 93.5,196.5C 93.6716,197.492 93.3382,198.158 92.5,198.5C 92.1667,198.5 91.8333,198.5 91.5,198.5C 91.2155,196.585 91.5489,194.919 92.5,193.5 Z"/></g>
<g><path style="opacity:0.004" fill="#fefffe" d="M 263.5,197.5 C 264.833,198.167 264.833,198.167 263.5,197.5 Z"/></g>
<g><path style="opacity:0.004" fill="#fefffe" d="M 277.5,197.5 C 278.833,198.167 278.833,198.167 277.5,197.5 Z"/></g>
<g><path style="opacity:0.004" fill="#fefffe" d="M 19.5,198.5 C 20.8333,199.167 20.8333,199.167 19.5,198.5 Z"/></g>
<g><path style="opacity:0.004" fill="#fefffe" d="M 383.5,199.5 C 384.833,200.167 384.833,200.167 383.5,199.5 Z"/></g>
<g><path style="opacity:1" fill="#191919" d="M 94.5,187.5 C 95.3382,187.842 95.6716,188.508 95.5,189.5C 95.3841,192.86 95.0508,196.193 94.5,199.5C 94.5,200.833 94.5,202.167 94.5,203.5C 93.1667,212.167 93.1667,220.833 94.5,229.5C 94.5,230.167 94.5,230.833 94.5,231.5C 94.8333,236.833 95.1667,242.167 95.5,247.5C 94.7048,246.472 94.0382,244.806 93.5,242.5C 93.8128,238.958 93.4794,235.625 92.5,232.5C 92.5,231.167 92.5,229.833 92.5,228.5C 92.5,226.833 92.5,225.167 92.5,223.5C 92.5,216.167 92.5,208.833 92.5,201.5C 92.5,200.5 92.5,199.5 92.5,198.5C 93.3382,198.158 93.6716,197.492 93.5,196.5C 93.5,195.167 93.5,193.833 93.5,192.5C 94.4345,191.432 94.7678,190.099 94.5,188.5C 94.5,188.167 94.5,187.833 94.5,187.5 Z"/></g>
<g><path style="opacity:0.004" fill="#fefffe" d="M 215.5,205.5 C 216.833,206.167 216.833,206.167 215.5,205.5 Z"/></g>
<g><path style="opacity:0.067" fill="#c4c4c4" d="M 358.5,199.5 C 360.175,202.507 360.841,205.84 360.5,209.5C 359.596,208.791 359.263,207.791 359.5,206.5C 358.781,204.236 358.448,201.903 358.5,199.5 Z"/></g>
<g><path style="opacity:0.006" fill="#f8f8f8" d="M 96.5,207.5 C 96.2627,208.791 96.596,209.791 97.5,210.5C 97.5,215.5 97.5,220.5 97.5,225.5C 97.1667,225.5 96.8333,225.5 96.5,225.5C 96.7678,223.901 96.4345,222.568 95.5,221.5C 95.1805,216.637 95.5139,211.97 96.5,207.5 Z"/></g>
<g><path style="opacity:0.008" fill="#f6f6f6" d="M 356.5,207.5 C 357.487,212.305 357.821,217.305 357.5,222.5C 356.675,226.647 356.175,230.981 356,235.5C 355.598,226.16 355.765,216.827 356.5,207.5 Z"/></g>
<g><path style="opacity:0.008" fill="#d5d5d5" d="M 360.5,209.5 C 361.817,212.428 363.15,215.428 364.5,218.5C 363.679,221.641 363.179,224.975 363,228.5C 361.903,222.195 361.07,215.861 360.5,209.5 Z"/></g>
<g><path style="opacity:0.424" fill="#9c9c9c" d="M 82.5,195.5 C 82.1872,199.042 82.5206,202.375 83.5,205.5C 83.5,208.167 83.5,210.833 83.5,213.5C 81.8372,215.438 81.1706,217.772 81.5,220.5C 81.1667,220.5 80.8333,220.5 80.5,220.5C 80.5658,211.971 81.2325,203.638 82.5,195.5 Z"/></g>
<g><path style="opacity:0.512" fill="#8a8a8a" d="M 91.5,198.5 C 91.2627,199.791 91.596,200.791 92.5,201.5C 92.5,208.833 92.5,216.167 92.5,223.5C 91.8333,223.5 91.5,223.167 91.5,222.5C 91.8222,216.642 91.4889,210.975 90.5,205.5C 90.1984,202.941 90.5318,200.607 91.5,198.5 Z"/></g>
<g><path style="opacity:0.004" fill="#fefffe" d="M 448.5,215.5 C 449.833,216.167 449.833,216.167 448.5,215.5 Z"/></g>
<g><path style="opacity:0.325" fill="#919191" d="M 96.5,203.5 C 96.5,204.833 96.5,206.167 96.5,207.5C 95.5139,211.97 95.1805,216.637 95.5,221.5C 94.612,224.054 94.2786,226.721 94.5,229.5C 93.1667,220.833 93.1667,212.167 94.5,203.5C 95.4345,202.432 95.7678,201.099 95.5,199.5C 95.3505,198.448 95.5172,197.448 96,196.5C 96.4966,198.81 96.6633,201.143 96.5,203.5 Z"/></g>
<g><path style="opacity:0.006" fill="#eeeeee" d="M 77.5,218.5 C 78.2653,221.096 78.5987,223.763 78.5,226.5C 77.8485,227.091 77.1818,227.757 76.5,228.5C 76.1667,226.833 75.8333,225.167 75.5,223.5C 75.5561,221.36 76.2227,219.694 77.5,218.5 Z"/></g>
<g><path style="opacity:0.561" fill="#737373" d="M 98.5,199.5 C 99.4345,200.568 99.7678,201.901 99.5,203.5C 98.2298,215.171 98.2298,226.838 99.5,238.5C 99.6621,240.527 99.4955,242.527 99,244.5C 98.8138,241.964 98.3138,239.631 97.5,237.5C 97.5,233.5 97.5,229.5 97.5,225.5C 97.5,220.5 97.5,215.5 97.5,210.5C 97.5,209.5 97.5,208.5 97.5,207.5C 98.4614,205.735 98.7947,203.735 98.5,201.5C 98.5,200.833 98.5,200.167 98.5,199.5 Z"/></g>
<g><path style="opacity:0.05" fill="#dfdfdf" d="M 78.5,229.5 C 79.4511,230.919 79.7845,232.585 79.5,234.5C 79.5,234.833 79.5,235.167 79.5,235.5C 77.2886,234.077 76.4553,232.077 77,229.5C 77.8068,233.449 78.3068,233.449 78.5,229.5 Z"/></g>
<g><path style="opacity:0.005" fill="#fefffe" d="M 365.5,243.5 C 365.5,239.833 365.5,236.167 365.5,232.5C 366.222,232.082 366.722,231.416 367,230.5C 367.667,234.5 367.667,238.5 367,242.5C 366.617,243.056 366.117,243.389 365.5,243.5 Z"/></g>
<g><path style="opacity:0.416" fill="#bcbcbc" d="M 90.5,206.5 C 90.1786,212.026 90.5119,217.36 91.5,222.5C 91.5,223.167 91.8333,223.5 92.5,223.5C 92.5,225.167 92.5,226.833 92.5,228.5C 91.1667,229.833 91.1667,231.167 92.5,232.5C 93.4794,235.625 93.8128,238.958 93.5,242.5C 92.6862,240.369 92.1862,238.036 92,235.5C 91.6667,237.5 91.3333,239.5 91,241.5C 90.7096,239.08 90.2096,236.746 89.5,234.5C 89.1731,224.985 89.5064,215.652 90.5,206.5 Z"/></g>
<g><path style="opacity:0.861" fill="#2f2f2f" d="M 83.5,213.5 C 83.083,224.08 83.7496,234.58 85.5,245C 85.3333,246.167 85.1667,247.333 85,248.5C 84.8091,246.292 84.3091,244.292 83.5,242.5C 82.2751,237.71 81.6084,232.71 81.5,227.5C 81.5,225.167 81.5,222.833 81.5,220.5C 81.1706,217.772 81.8372,215.438 83.5,213.5 Z"/></g>
<g><path style="opacity:0.004" fill="#fefffe" d="M 181.5,236.5 C 182.833,237.167 182.833,237.167 181.5,236.5 Z"/></g>
<g><path style="opacity:0.004" fill="#fefffe" d="M 334.5,239.5 C 335.833,240.167 335.833,240.167 334.5,239.5 Z"/></g>
<g><path style="opacity:0.286" fill="#aeaeae" d="M 80.5,227.5 C 80.8333,227.5 81.1667,227.5 81.5,227.5C 81.6084,232.71 82.2751,237.71 83.5,242.5C 83.3227,246.234 83.6561,249.901 84.5,253.5C 83.1667,253.833 83.1667,254.167 84.5,254.5C 85.1667,256.833 85.8333,259.167 86.5,261.5C 85.7321,262.263 85.2321,263.263 85,264.5C 84.7431,260.23 83.5765,256.23 81.5,252.5C 81.8333,251.833 82.1667,251.167 82.5,250.5C 81.1828,245.544 80.1828,240.544 79.5,235.5C 79.5,235.167 79.5,234.833 79.5,234.5C 80.4682,232.393 80.8016,230.059 80.5,227.5 Z"/></g>
<g><path style="opacity:0.459" fill="#5e5e5e" d="M 89.5,234.5 C 90.2096,236.746 90.7096,239.08 91,241.5C 91.3333,239.5 91.6667,237.5 92,235.5C 92.1862,238.036 92.6862,240.369 93.5,242.5C 94.0382,244.806 94.7048,246.472 95.5,247.5C 95.8333,247.5 96.1667,247.5 96.5,247.5C 96.5,247.833 96.5,248.167 96.5,248.5C 96.2322,250.099 96.5655,251.432 97.5,252.5C 97.5,253.167 97.8333,253.5 98.5,253.5C 98.5,254.833 98.5,256.167 98.5,257.5C 97.7784,257.082 97.2784,256.416 97,255.5C 96.79,257.058 96.29,258.391 95.5,259.5C 95.0905,256.602 94.9238,253.602 95,250.5C 94.6667,251.833 94.3333,253.167 94,254.5C 93.3333,251.167 92.6667,247.833 92,244.5C 91.5892,250.135 92.4225,255.468 94.5,260.5C 94.5,261.167 94.5,261.833 94.5,262.5C 94.44,263.043 94.1067,263.376 93.5,263.5C 93.0037,261.602 92.337,260.602 91.5,260.5C 90.596,259.791 90.2627,258.791 90.5,257.5C 91.5729,255.653 91.5729,253.653 90.5,251.5C 90.7373,250.209 90.404,249.209 89.5,248.5C 88.0264,242.707 87.5264,236.707 88,230.5C 88.21,232.058 88.71,233.391 89.5,234.5 Z"/></g>
<g><path style="opacity:0.275" fill="#c4c4c4" d="M 96.5,225.5 C 96.1832,229.702 96.5166,233.702 97.5,237.5C 98.3138,239.631 98.8138,241.964 99,244.5C 99.4955,242.527 99.6621,240.527 99.5,238.5C 100.468,240.607 100.802,242.941 100.5,245.5C 99.8333,245.5 99.5,245.833 99.5,246.5C 98.1667,247.167 98.1667,247.833 99.5,248.5C 99.1667,249.167 98.8333,249.833 98.5,250.5C 97.6618,250.842 97.3284,251.508 97.5,252.5C 96.5655,251.432 96.2322,250.099 96.5,248.5C 97.4228,244.528 97.4228,244.194 96.5,247.5C 96.1667,247.5 95.8333,247.5 95.5,247.5C 95.1667,242.167 94.8333,236.833 94.5,231.5C 95.1667,229.5 95.8333,227.5 96.5,225.5 Z"/></g>
<g><path style="opacity:0.005" fill="#dddddd" d="M 357.5,246.5 C 357.5,247.833 357.5,249.167 357.5,250.5C 357.392,255.71 356.725,260.71 355.5,265.5C 355.334,260.156 355.501,254.823 356,249.5C 356.232,248.263 356.732,247.263 357.5,246.5 Z"/></g>
<g><path style="opacity:0.004" fill="#e1e1e1" d="M 365.5,249.5 C 366.329,252.469 366.495,255.469 366,258.5C 365.617,257.944 365.117,257.611 364.5,257.5C 364.194,254.615 364.527,251.948 365.5,249.5 Z"/></g>
<g><path style="opacity:0.224" fill="#b6b6b6" d="M 89.5,251.5 C 89.8333,251.5 90.1667,251.5 90.5,251.5C 91.5729,253.653 91.5729,255.653 90.5,257.5C 89.8505,255.565 89.5172,253.565 89.5,251.5 Z"/></g>
<g><path style="opacity:0.004" fill="#fefffe" d="M 252.5,253.5 C 253.833,254.167 253.833,254.167 252.5,253.5 Z"/></g>
<g><path style="opacity:0.004" fill="#fefffe" d="M 371.5,254.5 C 372.833,255.167 372.833,255.167 371.5,254.5 Z"/></g>
<g><path style="opacity:0.075" fill="#d3d3d3" d="M 95.5,259.5 C 95.5,259.833 95.5,260.167 95.5,260.5C 95.1667,260.5 94.8333,260.5 94.5,260.5C 92.4225,255.468 91.5892,250.135 92,244.5C 92.6667,247.833 93.3333,251.167 94,254.5C 94.3333,253.167 94.6667,251.833 95,250.5C 94.9238,253.602 95.0905,256.602 95.5,259.5 Z"/></g>
<g><path style="opacity:0.18" fill="#a0a0a0" d="M 100.5,245.5 C 101.557,254.946 103.224,264.279 105.5,273.5C 104.662,273.842 104.328,274.508 104.5,275.5C 104.167,275.5 103.833,275.5 103.5,275.5C 103.167,271.5 102.833,271.5 102.5,275.5C 101.076,273.485 100.41,271.152 100.5,268.5C 101.268,269.263 101.768,270.263 102,271.5C 102.167,270.833 102.333,270.167 102.5,269.5C 102.366,267.354 101.699,266.354 100.5,266.5C 98.8372,264.562 98.1706,262.228 98.5,259.5C 99.2679,260.263 99.7679,261.263 100,262.5C 100.32,259.28 99.8202,256.28 98.5,253.5C 98.5,252.5 98.5,251.5 98.5,250.5C 98.8333,249.833 99.1667,249.167 99.5,248.5C 99.5,247.833 99.5,247.167 99.5,246.5C 99.5,245.833 99.8333,245.5 100.5,245.5 Z"/></g>
<g><path style="opacity:0.005" fill="#e2e2e2" d="M 364.5,257.5 C 366.003,261.97 365.337,265.97 362.5,269.5C 362.717,265.295 363.383,261.295 364.5,257.5 Z"/></g>
<g><path style="opacity:0.999" fill="#181818" d="M 92.5,182.5 C 93.4345,183.568 93.7678,184.901 93.5,186.5C 93.5,186.833 93.5,187.167 93.5,187.5C 92.596,188.209 92.2627,189.209 92.5,190.5C 92.5,191.5 92.5,192.5 92.5,193.5C 91.5489,194.919 91.2155,196.585 91.5,198.5C 90.5318,200.607 90.1984,202.941 90.5,205.5C 90.5,205.833 90.5,206.167 90.5,206.5C 89.5064,215.652 89.1731,224.985 89.5,234.5C 88.71,233.391 88.21,232.058 88,230.5C 87.5264,236.707 88.0264,242.707 89.5,248.5C 89.5,249.5 89.5,250.5 89.5,251.5C 89.5172,253.565 89.8505,255.565 90.5,257.5C 90.2627,258.791 90.596,259.791 91.5,260.5C 91.2322,262.099 91.5655,263.432 92.5,264.5C 92.5,264.833 92.5,265.167 92.5,265.5C 93.0222,268.253 93.8555,270.92 95,273.5C 94.8446,271.189 94.8446,268.856 95,266.5C 95.2784,267.416 95.7784,268.082 96.5,268.5C 97.1103,270.85 97.4437,270.517 97.5,267.5C 96.9518,265.374 96.2852,263.374 95.5,261.5C 95.5,261.167 95.5,260.833 95.5,260.5C 95.5,260.167 95.5,259.833 95.5,259.5C 96.29,258.391 96.79,257.058 97,255.5C 97.2784,256.416 97.7784,257.082 98.5,257.5C 98.5,258.167 98.5,258.833 98.5,259.5C 98.1706,262.228 98.8372,264.562 100.5,266.5C 100.5,267.167 100.5,267.833 100.5,268.5C 100.41,271.152 101.076,273.485 102.5,275.5C 102.12,277.698 102.787,279.365 104.5,280.5C 104.5,280.833 104.5,281.167 104.5,281.5C 104.263,282.791 104.596,283.791 105.5,284.5C 105.5,285.167 105.833,285.5 106.5,285.5C 106.5,286.167 106.833,286.5 107.5,286.5C 107.5,287.167 107.5,287.833 107.5,288.5C 107.328,289.492 107.662,290.158 108.5,290.5C 108.5,290.833 108.5,291.167 108.5,291.5C 108.328,292.492 108.662,293.158 109.5,293.5C 109.833,293.5 110.167,293.5 110.5,293.5C 110.5,294.5 110.5,295.5 110.5,296.5C 110.427,298.027 111.094,299.027 112.5,299.5C 112.5,299.833 112.5,300.167 112.5,300.5C 112.427,302.027 113.094,303.027 114.5,303.5C 118.225,311.279 122.725,318.612 128,325.5C 132.065,329.395 135.898,333.395 139.5,337.5C 139.833,338.5 140.5,339.167 141.5,339.5C 147.397,345.784 154.064,351.117 161.5,355.5C 161.842,356.338 162.508,356.672 163.5,356.5C 163.833,356.5 164.167,356.5 164.5,356.5C 164.842,357.338 165.508,357.672 166.5,357.5C 166.5,357.833 166.5,358.167 166.5,358.5C 166.842,359.338 167.508,359.672 168.5,359.5C 168.833,359.5 169.167,359.5 169.5,359.5C 169.842,360.338 170.508,360.672 171.5,360.5C 171.842,361.338 172.508,361.672 173.5,361.5C 173.842,362.338 174.508,362.672 175.5,362.5C 175.5,363.167 175.833,363.5 176.5,363.5C 177.209,364.404 178.209,364.737 179.5,364.5C 179.5,365.167 179.833,365.5 180.5,365.5C 180.5,365.833 180.5,366.167 180.5,366.5C 182.214,367.738 184.214,368.405 186.5,368.5C 187.167,368.5 187.833,368.5 188.5,368.5C 188.5,368.833 188.5,369.167 188.5,369.5C 189.568,370.434 190.901,370.768 192.5,370.5C 193.99,372.28 195.99,372.946 198.5,372.5C 205.041,375.545 212.041,376.878 219.5,376.5C 226.143,377.165 232.809,377.665 239.5,378C 237.5,378.333 235.5,378.667 233.5,379C 238.706,379.388 243.706,378.888 248.5,377.5C 250.5,377.5 252.5,377.5 254.5,377.5C 255.609,377.443 256.609,377.11 257.5,376.5C 267.321,375.044 276.654,372.044 285.5,367.5C 286.298,367.957 286.631,368.624 286.5,369.5C 286.167,369.5 285.833,369.5 285.5,369.5C 284.833,369.5 284.5,369.833 284.5,370.5C 283.609,371.11 282.609,371.443 281.5,371.5C 280.508,371.328 279.842,371.662 279.5,372.5C 278.609,373.11 277.609,373.443 276.5,373.5C 275.209,373.263 274.209,373.596 273.5,374.5C 272.833,374.5 272.5,374.833 272.5,375.5C 271.833,375.5 271.167,375.5 270.5,375.5C 269.508,375.328 268.842,375.662 268.5,376.5C 267.508,376.328 266.842,376.662 266.5,377.5C 265.167,377.5 263.833,377.5 262.5,377.5C 259.933,377.721 257.599,378.388 255.5,379.5C 254.5,379.5 253.5,379.5 252.5,379.5C 251.209,379.263 250.209,379.596 249.5,380.5C 249.167,380.5 248.833,380.5 248.5,380.5C 245.287,380.19 242.287,380.523 239.5,381.5C 236.5,381.5 233.5,381.5 230.5,381.5C 229.5,381.5 228.5,381.5 227.5,381.5C 226.167,381.833 224.833,382.167 223.5,382.5C 214.139,381.991 204.806,380.658 195.5,378.5C 195.158,377.662 194.492,377.328 193.5,377.5C 182.745,375.89 173.079,372.557 164.5,367.5C 164.027,366.094 163.027,365.427 161.5,365.5C 161.167,365.5 160.833,365.5 160.5,365.5C 160.027,364.094 159.027,363.427 157.5,363.5C 154.522,362.011 151.522,360.511 148.5,359C 147.619,358.292 146.953,357.458 146.5,356.5C 146.027,355.094 145.027,354.427 143.5,354.5C 142.738,352.738 141.404,351.738 139.5,351.5C 137.246,350.876 135.579,349.543 134.5,347.5C 134.167,346.5 133.5,345.833 132.5,345.5C 131.448,345.649 130.448,345.483 129.5,345C 129.833,344.667 130.167,344.333 130.5,344C 128.167,342.333 125.833,340.667 123.5,339C 124.056,338.617 124.389,338.117 124.5,337.5C 124.167,336.5 123.5,335.833 122.5,335.5C 121.5,333.833 120.167,332.5 118.5,331.5C 116.621,331.607 116.288,331.107 117.5,330C 116.29,328.961 115.29,327.794 114.5,326.5C 114.573,324.973 113.906,323.973 112.5,323.5C 111.599,322.71 110.932,321.71 110.5,320.5C 110.573,318.973 109.906,317.973 108.5,317.5C 104.943,312.269 102.277,306.603 100.5,300.5C 100.369,299.761 100.536,299.094 101,298.5C 101.852,299.571 102.685,300.571 103.5,301.5C 108.474,309.795 113.808,317.795 119.5,325.5C 125.805,333.975 133.138,341.141 141.5,347C 133.9,339.905 126.9,332.405 120.5,324.5C 115.134,316.81 109.801,309.143 104.5,301.5C 104.5,301.167 104.5,300.833 104.5,300.5C 104.068,299.29 103.401,298.29 102.5,297.5C 102.5,297.167 102.5,296.833 102.5,296.5C 101.528,293.868 100.195,291.535 98.5,289.5C 98.7373,288.209 98.404,287.209 97.5,286.5C 96.2422,283.228 95.0755,279.894 94,276.5C 93.6667,277.5 93.3333,278.5 93,279.5C 92.7216,278.584 92.2216,277.918 91.5,277.5C 89.221,272.392 87.5544,267.058 86.5,261.5C 85.8333,259.167 85.1667,256.833 84.5,254.5C 84.5,254.167 84.5,253.833 84.5,253.5C 83.6561,249.901 83.3227,246.234 83.5,242.5C 84.3091,244.292 84.8091,246.292 85,248.5C 85.1667,247.333 85.3333,246.167 85.5,245C 83.7496,234.58 83.083,224.08 83.5,213.5C 83.5,210.833 83.5,208.167 83.5,205.5C 85.1983,197.2 88.1983,189.533 92.5,182.5 Z"/></g>
<g><path style="opacity:0.576" fill="#909090" d="M 94.5,262.5 C 95.1667,262.5 95.5,262.167 95.5,261.5C 96.2852,263.374 96.9518,265.374 97.5,267.5C 96.8333,267.5 96.5,267.833 96.5,268.5C 95.7784,268.082 95.2784,267.416 95,266.5C 94.8446,268.856 94.8446,271.189 95,273.5C 93.8555,270.92 93.0222,268.253 92.5,265.5C 93.8333,265.167 93.8333,264.833 92.5,264.5C 91.5655,263.432 91.2322,262.099 91.5,260.5C 92.337,260.602 93.0037,261.602 93.5,263.5C 94.1067,263.376 94.44,263.043 94.5,262.5 Z"/></g>
<g><path style="opacity:0.004" fill="#fefffe" d="M 268.5,267.5 C 269.833,268.167 269.833,268.167 268.5,267.5 Z"/></g>
<g><path style="opacity:0.004" fill="#fefffe" d="M 328.5,267.5 C 329.833,268.167 329.833,268.167 328.5,267.5 Z"/></g>
<g><path style="opacity:0.005" fill="#dddddd" d="M 355.5,268.5 C 354.952,270.626 354.285,272.626 353.5,274.5C 352.721,271.925 352.887,269.592 354,267.5C 354.383,268.056 354.883,268.389 355.5,268.5 Z"/></g>
<g><path style="opacity:0.004" fill="#fefffe" d="M 118.5,269.5 C 119.833,270.167 119.833,270.167 118.5,269.5 Z"/></g>
<g><path style="opacity:0.006" fill="#e9e9e9" d="M 362.5,269.5 C 363.829,272.544 363.663,275.544 362,278.5C 361.617,277.944 361.117,277.611 360.5,277.5C 360.263,276.209 360.596,275.209 361.5,274.5C 362.833,273.833 362.833,273.167 361.5,272.5C 361.263,271.209 361.596,270.209 362.5,269.5 Z"/></g>
<g><path style="opacity:0.243" fill="#b6b6b6" d="M 97.5,273.5 C 98.8333,273.5 99.5,274.167 99.5,275.5C 99.5,274.167 98.8333,273.5 97.5,273.5 Z"/></g>
<g><path style="opacity:0.005" fill="#f3f3f3" d="M 353.5,275.5 C 352.89,276.391 352.557,277.391 352.5,278.5C 352.167,278.5 351.833,278.5 351.5,278.5C 350.326,276.632 350.993,275.632 353.5,275.5 Z"/></g>
<g><path style="opacity:1" fill="#313131" d="M 105.5,273.5 C 106.338,273.842 106.672,274.508 106.5,275.5C 106.633,278.925 105.967,279.258 104.5,276.5C 104.5,276.167 104.5,275.833 104.5,275.5C 104.328,274.508 104.662,273.842 105.5,273.5 Z"/></g>
<g><path style="opacity:0.004" fill="#fefffe" d="M 415.5,276.5 C 416.833,277.167 416.833,277.167 415.5,276.5 Z"/></g>
<g><path style="opacity:0.729" fill="#777777" d="M 97.5,286.5 C 96.8333,286.833 96.1667,287.167 95.5,287.5C 93.1954,284.593 91.8621,281.259 91.5,277.5C 92.2216,277.918 92.7216,278.584 93,279.5C 93.3333,278.5 93.6667,277.5 94,276.5C 95.0755,279.894 96.2422,283.228 97.5,286.5 Z"/></g>
<g><path style="opacity:0.376" fill="#979797" d="M 99.5,275.5 C 100.64,278.368 101.64,281.368 102.5,284.5C 101.624,284.631 100.957,284.298 100.5,283.5C 99.6751,281.199 99.0084,278.865 98.5,276.5C 99.1667,276.5 99.5,276.167 99.5,275.5 Z"/></g>
<g><path style="opacity:0.004" fill="#fefffe" d="M 16.5,281.5 C 17.8333,282.167 17.8333,282.167 16.5,281.5 Z"/></g>
<g><path style="opacity:0.004" fill="#fefffe" d="M 248.5,281.5 C 249.833,282.167 249.833,282.167 248.5,281.5 Z"/></g>
<g><path style="opacity:0.005" fill="#dcdcdc" d="M 359.5,280.5 C 360.473,282.068 360.64,283.735 360,285.5C 359.617,284.944 359.117,284.611 358.5,284.5C 358.232,282.901 358.566,281.568 359.5,280.5 Z"/></g>
<g><path style="opacity:0.004" fill="#fefffe" d="M 390.5,281.5 C 391.833,282.167 391.833,282.167 390.5,281.5 Z"/></g>
<g><path style="opacity:0.769" fill="#646464" d="M 351.5,278.5 C 351.833,278.5 352.167,278.5 352.5,278.5C 352.5,279.167 352.5,279.833 352.5,280.5C 352.688,282.103 352.188,283.437 351,284.5C 350.536,283.906 350.369,283.239 350.5,282.5C 351.234,281.292 351.567,279.959 351.5,278.5 Z"/></g>
<g><path style="opacity:0.999" fill="#141414" d="M 359.5,206.5 C 359.263,207.791 359.596,208.791 360.5,209.5C 361.07,215.861 361.903,222.195 363,228.5C 363.179,224.975 363.679,221.641 364.5,218.5C 365.486,222.97 365.819,227.637 365.5,232.5C 365.5,236.167 365.5,239.833 365.5,243.5C 365.5,245.5 365.5,247.5 365.5,249.5C 364.527,251.948 364.194,254.615 364.5,257.5C 363.383,261.295 362.717,265.295 362.5,269.5C 361.596,270.209 361.263,271.209 361.5,272.5C 361.5,273.167 361.5,273.833 361.5,274.5C 360.596,275.209 360.263,276.209 360.5,277.5C 360.443,278.609 360.11,279.609 359.5,280.5C 358.566,281.568 358.232,282.901 358.5,284.5C 358.567,285.959 358.234,287.292 357.5,288.5C 356.833,288.5 356.5,288.833 356.5,289.5C 356.567,290.959 356.234,292.292 355.5,293.5C 354.833,293.5 354.5,293.833 354.5,294.5C 353.463,295.93 352.796,297.597 352.5,299.5C 352.672,300.492 352.338,301.158 351.5,301.5C 350.326,302.514 349.66,303.847 349.5,305.5C 348.662,305.842 348.328,306.508 348.5,307.5C 348.5,308.167 348.5,308.833 348.5,309.5C 348.167,309.5 347.833,309.5 347.5,309.5C 346.662,309.842 346.328,310.508 346.5,311.5C 340.055,323.943 331.722,334.943 321.5,344.5C 320.761,344.631 320.094,344.464 319.5,344C 320.451,343.282 320.617,342.449 320,341.5C 317.96,343.37 316.127,345.37 314.5,347.5C 309.158,351.17 303.825,354.836 298.5,358.5C 298.167,358.5 297.833,358.5 297.5,358.5C 296.508,358.328 295.842,358.662 295.5,359.5C 294.29,359.932 293.29,360.599 292.5,361.5C 284.972,365.115 277.305,368.115 269.5,370.5C 266.99,370.927 264.657,371.593 262.5,372.5C 260.784,372.629 259.117,372.962 257.5,373.5C 255.901,373.232 254.568,373.566 253.5,374.5C 249.534,375.162 245.534,375.495 241.5,375.5C 234.196,376.647 226.862,376.647 219.5,375.5C 217.097,375.552 214.764,375.219 212.5,374.5C 212.167,374.5 211.833,374.5 211.5,374.5C 208.885,373.709 206.218,373.043 203.5,372.5C 203.167,372.5 202.833,372.5 202.5,372.5C 201.791,371.596 200.791,371.263 199.5,371.5C 199.167,371.5 198.833,371.5 198.5,371.5C 198.5,370.833 198.167,370.5 197.5,370.5C 197.167,370.5 196.833,370.5 196.5,370.5C 195.791,369.596 194.791,369.263 193.5,369.5C 193.917,368.876 194.584,368.543 195.5,368.5C 198.782,369.488 202.115,370.154 205.5,370.5C 216.05,372.366 226.716,373.2 237.5,373C 232.896,371.939 228.229,371.273 223.5,371C 231.833,370.667 240.167,370.333 248.5,370C 253.042,369.133 257.375,367.967 261.5,366.5C 262.167,366.5 262.833,366.5 263.5,366.5C 268.515,364.772 273.515,362.939 278.5,361C 277.584,360.722 276.918,360.222 276.5,359.5C 276.842,358.662 277.508,358.328 278.5,358.5C 280.153,358.34 281.486,357.674 282.5,356.5C 283.492,356.672 284.158,356.338 284.5,355.5C 286.346,353.675 288.179,352.009 290,350.5C 290.333,350.833 290.667,351.167 291,351.5C 292.944,349.779 295.11,348.446 297.5,347.5C 299.404,347.262 300.738,346.262 301.5,344.5C 302.5,344.167 303.167,343.5 303.5,342.5C 305.027,342.573 306.027,341.906 306.5,340.5C 308.404,340.262 309.738,339.262 310.5,337.5C 310.856,335.81 311.856,334.81 313.5,334.5C 314.75,334.577 315.583,335.244 316,336.5C 319.567,333.023 322.9,329.356 326,325.5C 327.009,323.975 327.509,322.308 327.5,320.5C 328.864,318.809 330.197,317.142 331.5,315.5C 332.5,315.167 333.167,314.5 333.5,313.5C 336.115,311.621 338.281,309.288 340,306.5C 342.147,301.54 344.814,296.873 348,292.5C 348.654,291.304 349.154,291.304 349.5,292.5C 348.754,293.736 348.421,295.07 348.5,296.5C 347.662,296.842 347.328,297.508 347.5,298.5C 344.85,302.133 343.016,306.133 342,310.5C 344.178,306.806 346.345,303.139 348.5,299.5C 348.5,299.167 348.5,298.833 348.5,298.5C 349.167,298.5 349.5,298.167 349.5,297.5C 349.5,297.167 349.5,296.833 349.5,296.5C 350.345,295.329 351.011,293.995 351.5,292.5C 351.833,291.167 352.167,289.833 352.5,288.5C 353.167,288.5 353.5,288.167 353.5,287.5C 355.405,283.784 356.739,279.784 357.5,275.5C 357.539,273.776 357.206,273.443 356.5,274.5C 354.992,276.181 353.992,278.181 353.5,280.5C 353.167,280.5 352.833,280.5 352.5,280.5C 352.5,279.833 352.5,279.167 352.5,278.5C 352.557,277.391 352.89,276.391 353.5,275.5C 353.5,275.167 353.5,274.833 353.5,274.5C 354.285,272.626 354.952,270.626 355.5,268.5C 355.5,267.5 355.5,266.5 355.5,265.5C 356.725,260.71 357.392,255.71 357.5,250.5C 358.33,242.01 358.83,233.343 359,224.5C 359.333,226.167 359.667,227.833 360,229.5C 360.099,222.814 359.599,216.148 358.5,209.5C 358.52,208.274 358.853,207.274 359.5,206.5 Z"/></g>
<g><path style="opacity:0.38" fill="#919191" d="M 359.5,266.5 C 359.675,268.621 359.341,270.621 358.5,272.5C 358.167,272.5 357.833,272.5 357.5,272.5C 357.595,270.214 358.262,268.214 359.5,266.5 Z"/></g>
<g><path style="opacity:0.706" fill="#6e6e6e" d="M 359.5,266.5 C 359.523,264.073 360.023,261.74 361,259.5C 361.588,262.139 361.088,264.473 359.5,266.5 Z"/></g>
<g><path style="opacity:0.004" fill="#fefffe" d="M 411.5,284.5 C 412.833,285.167 412.833,285.167 411.5,284.5 Z"/></g>
<g><path style="opacity:0.007" fill="#e4e4e4" d="M 97.5,286.5 C 98.404,287.209 98.7373,288.209 98.5,289.5C 97.8333,289.5 97.5,289.833 97.5,290.5C 96.5987,289.71 95.9321,288.71 95.5,287.5C 96.1667,287.167 96.8333,286.833 97.5,286.5 Z"/></g>
<g><path style="opacity:0.004" fill="#fefffe" d="M 220.5,286.5 C 221.833,287.167 221.833,287.167 220.5,286.5 Z"/></g>
<g><path style="opacity:0.122" fill="#aeaeae" d="M 102.5,284.5 C 103.904,287.317 104.737,290.317 105,293.5C 103.546,290.929 102.38,288.262 101.5,285.5C 102.167,285.5 102.5,285.167 102.5,284.5 Z"/></g>
<g><path style="opacity:0.004" fill="#f3f3f3" d="M 356.5,289.5 C 356.5,288.833 356.833,288.5 357.5,288.5C 358.742,290.346 358.409,290.679 356.5,289.5 Z"/></g>
<g><path style="opacity:0.082" fill="#d5d5d5" d="M 108.5,287.5 C 109.338,287.842 109.672,288.508 109.5,289.5C 108.833,289.5 108.5,289.833 108.5,290.5C 107.662,290.158 107.328,289.492 107.5,288.5C 108.167,288.5 108.5,288.167 108.5,287.5 Z"/></g>
<g><path style="opacity:0.999" fill="#535353" d="M 102.5,275.5 C 102.833,275.5 103.167,275.5 103.5,275.5C 103.556,278.517 103.89,278.85 104.5,276.5C 105.967,279.258 106.633,278.925 106.5,275.5C 109.264,283.033 112.598,290.366 116.5,297.5C 115.883,297.389 115.383,297.056 115,296.5C 114.51,297.793 114.343,299.127 114.5,300.5C 114.167,300.5 113.833,300.5 113.5,300.5C 113.539,298.776 113.206,298.443 112.5,299.5C 111.094,299.027 110.427,298.027 110.5,296.5C 111.833,295.5 111.833,294.5 110.5,293.5C 110.167,292.167 109.833,292.167 109.5,293.5C 108.662,293.158 108.328,292.492 108.5,291.5C 109.338,291.158 109.672,290.492 109.5,289.5C 109.672,288.508 109.338,287.842 108.5,287.5C 108.5,286.833 108.167,286.5 107.5,286.5C 106.833,286.5 106.5,286.167 106.5,285.5C 105.833,285.5 105.5,285.167 105.5,284.5C 104.596,283.791 104.263,282.791 104.5,281.5C 105.833,281.167 105.833,280.833 104.5,280.5C 102.787,279.365 102.12,277.698 102.5,275.5 Z"/></g>
<g><path style="opacity:0.007" fill="#d9d9d9" d="M 98.5,289.5 C 100.195,291.535 101.528,293.868 102.5,296.5C 101.833,296.5 101.5,296.833 101.5,297.5C 100.728,296.306 99.7281,295.306 98.5,294.5C 98.0618,294.565 97.7284,294.399 97.5,294C 98.1667,293.667 98.8333,293.333 99.5,293C 98.244,292.583 97.5774,291.75 97.5,290.5C 98.1667,290.5 98.5,290.167 98.5,289.5 Z"/></g>
<g><path style="opacity:0.007" fill="#e7e7e7" d="M 355.5,293.5 C 356.573,294.251 356.74,295.251 356,296.5C 355.333,297.833 354.667,299.167 354,300.5C 353.617,299.944 353.117,299.611 352.5,299.5C 352.796,297.597 353.463,295.93 354.5,294.5C 354.5,293.833 354.833,293.5 355.5,293.5 Z"/></g>
<g><path style="opacity:0.999" fill="#212121" d="M 116.5,297.5 C 129,316.671 144.334,333.338 162.5,347.5C 162.821,349.048 163.821,349.715 165.5,349.5C 171.19,353.012 177.19,356.012 183.5,358.5C 183.971,359.901 184.638,361.234 185.5,362.5C 188.855,363.846 192.188,365.18 195.5,366.5C 195.833,366.5 196.167,366.5 196.5,366.5C 199.449,367.368 202.449,368.368 205.5,369.5C 205.5,369.833 205.5,370.167 205.5,370.5C 202.115,370.154 198.782,369.488 195.5,368.5C 194.584,368.543 193.917,368.876 193.5,369.5C 193.167,369.5 192.833,369.5 192.5,369.5C 191.486,368.326 190.153,367.66 188.5,367.5C 187.833,367.5 187.167,367.5 186.5,367.5C 185.71,366.599 184.71,365.932 183.5,365.5C 183.167,365.5 182.833,365.5 182.5,365.5C 182.027,364.094 181.027,363.427 179.5,363.5C 179.167,363.5 178.833,363.5 178.5,363.5C 178.027,362.094 177.027,361.427 175.5,361.5C 174.833,361.5 174.167,361.5 173.5,361.5C 173.158,360.662 172.492,360.328 171.5,360.5C 171.158,359.662 170.492,359.328 169.5,359.5C 169.167,358.167 168.833,358.167 168.5,359.5C 167.508,359.672 166.842,359.338 166.5,358.5C 167.833,358.167 167.833,357.833 166.5,357.5C 166.158,356.662 165.492,356.328 164.5,356.5C 164.5,356.167 164.5,355.833 164.5,355.5C 164.158,354.662 163.492,354.328 162.5,354.5C 162.158,353.662 161.492,353.328 160.5,353.5C 160.5,352.833 160.167,352.5 159.5,352.5C 153.689,348.083 148.022,343.416 142.5,338.5C 142.167,337.5 141.5,336.833 140.5,336.5C 130.562,326.246 122.228,314.912 115.5,302.5C 115.5,301.833 115.167,301.5 114.5,301.5C 114.5,301.167 114.5,300.833 114.5,300.5C 114.343,299.127 114.51,297.793 115,296.5C 115.383,297.056 115.883,297.389 116.5,297.5 Z"/></g>
<g><path style="opacity:0.62" fill="#949494" d="M 98.5,294.5 C 99.7281,295.306 100.728,296.306 101.5,297.5C 101.833,297.5 102.167,297.5 102.5,297.5C 103.401,298.29 104.068,299.29 104.5,300.5C 103.833,300.5 103.5,300.833 103.5,301.5C 102.685,300.571 101.852,299.571 101,298.5C 100.536,299.094 100.369,299.761 100.5,300.5C 98.9261,298.898 98.2594,296.898 98.5,294.5 Z"/></g>
<g><path style="opacity:0.031" fill="#bababa" d="M 348.5,296.5 C 348.5,297.167 348.833,297.5 349.5,297.5C 349.5,298.167 349.167,298.5 348.5,298.5C 348.167,298.5 347.833,298.5 347.5,298.5C 347.328,297.508 347.662,296.842 348.5,296.5 Z"/></g>
<g><path style="opacity:0.004" fill="#fefffe" d="M 120.5,298.5 C 121.833,299.167 121.833,299.167 120.5,298.5 Z"/></g>
<g><path style="opacity:0.212" fill="#b5b5b5" d="M 356.5,274.5 C 356.5,275.167 356.833,275.5 357.5,275.5C 356.739,279.784 355.405,283.784 353.5,287.5C 352.794,286.443 352.461,286.776 352.5,288.5C 350.481,289.538 350.147,290.872 351.5,292.5C 351.011,293.995 350.345,295.329 349.5,296.5C 349.167,296.5 348.833,296.5 348.5,296.5C 348.421,295.07 348.754,293.736 349.5,292.5C 349.154,291.304 348.654,291.304 348,292.5C 344.814,296.873 342.147,301.54 340,306.5C 338.281,309.288 336.115,311.621 333.5,313.5C 338.049,307.07 341.549,300.07 344,292.5C 344.75,291.874 345.584,291.374 346.5,291C 346.028,288.601 347.028,286.601 349.5,285C 348.434,283.841 348.767,283.008 350.5,282.5C 350.369,283.239 350.536,283.906 351,284.5C 352.188,283.437 352.688,282.103 352.5,280.5C 352.833,280.5 353.167,280.5 353.5,280.5C 353.992,278.181 354.992,276.181 356.5,274.5 Z"/></g>
<g><path style="opacity:0.114" fill="#a0a0a0" d="M 112.5,300.5 C 112.833,300.5 113.167,300.5 113.5,300.5C 113.5,301.167 113.833,301.5 114.5,301.5C 115.167,301.5 115.5,301.833 115.5,302.5C 114.833,302.5 114.5,302.833 114.5,303.5C 113.094,303.027 112.427,302.027 112.5,300.5 Z"/></g>
<g><path style="opacity:0.005" fill="#e6e6e6" d="M 351.5,301.5 C 352.706,303.437 352.373,305.104 350.5,306.5C 350.5,305.833 350.167,305.5 349.5,305.5C 349.66,303.847 350.326,302.514 351.5,301.5 Z"/></g>
<g><path style="opacity:0.004" fill="#fefffe" d="M 322.5,303.5 C 323.833,304.167 323.833,304.167 322.5,303.5 Z"/></g>
<g><path style="opacity:0.231" fill="#a2a2a2" d="M 103.5,301.5 C 103.833,301.5 104.167,301.5 104.5,301.5C 109.801,309.143 115.134,316.81 120.5,324.5C 119.833,324.5 119.5,324.833 119.5,325.5C 113.808,317.795 108.474,309.795 103.5,301.5 Z"/></g>
<g><path style="opacity:0.353" fill="#8f8f8f" d="M 347.5,298.5 C 347.5,299.167 347.833,299.5 348.5,299.5C 346.345,303.139 344.178,306.806 342,310.5C 343.016,306.133 344.85,302.133 347.5,298.5 Z"/></g>
<g><path style="opacity:0.004" fill="#e0e0e0" d="M 349.5,305.5 C 350.167,305.5 350.5,305.833 350.5,306.5C 350.591,308.698 349.925,309.031 348.5,307.5C 348.328,306.508 348.662,305.842 349.5,305.5 Z"/></g>
<g><path style="opacity:0.004" fill="#fefffe" d="M 198.5,307.5 C 199.833,308.167 199.833,308.167 198.5,307.5 Z"/></g>
<g><path style="opacity:0.004" fill="#fefffe" d="M 348.5,309.5 C 349.833,310.167 349.833,310.167 348.5,309.5 Z"/></g>
<g><path style="opacity:0.004" fill="#fefffe" d="M 130.5,310.5 C 131.833,311.167 131.833,311.167 130.5,310.5 Z"/></g>
<g><path style="opacity:0.027" fill="#d5d5d5" d="M 347.5,309.5 C 347.5,310.167 347.833,310.5 348.5,310.5C 348.158,311.338 347.492,311.672 346.5,311.5C 346.328,310.508 346.662,309.842 347.5,309.5 Z"/></g>
<g><path style="opacity:0.071" fill="#d8d8d8" d="M 333.5,313.5 C 333.167,314.5 332.5,315.167 331.5,315.5C 331.5,314.167 332.167,313.5 333.5,313.5 Z"/></g>
<g><path style="opacity:0.106" fill="#bcbcbc" d="M 108.5,317.5 C 109.906,317.973 110.573,318.973 110.5,320.5C 109.094,320.027 108.427,319.027 108.5,317.5 Z"/></g>
<g><path style="opacity:0.118" fill="#afafaf" d="M 115.5,302.5 C 122.228,314.912 130.562,326.246 140.5,336.5C 139.833,336.5 139.5,336.833 139.5,337.5C 135.898,333.395 132.065,329.395 128,325.5C 122.725,318.612 118.225,311.279 114.5,303.5C 115.167,303.5 115.5,303.167 115.5,302.5 Z"/></g>
<g><path style="opacity:0.004" fill="#fefffe" d="M 310.5,321.5 C 311.833,322.167 311.833,322.167 310.5,321.5 Z"/></g>
<g><path style="opacity:0.004" fill="#fefffe" d="M 66.5,324.5 C 67.8333,325.167 67.8333,325.167 66.5,324.5 Z"/></g>
<g><path style="opacity:0.006" fill="#e1e1e1" d="M 112.5,323.5 C 113.906,323.973 114.573,324.973 114.5,326.5C 112.176,326.123 111.509,325.123 112.5,323.5 Z"/></g>
<g><path style="opacity:0.924" fill="#545454" d="M 327.5,320.5 C 327.509,322.308 327.009,323.975 326,325.5C 322.9,329.356 319.567,333.023 316,336.5C 315.583,335.244 314.75,334.577 313.5,334.5C 317.833,329.5 322.5,324.833 327.5,320.5 Z"/></g>
<g><path style="opacity:0.047" fill="#999999" d="M 120.5,324.5 C 126.9,332.405 133.9,339.905 141.5,347C 133.138,341.141 125.805,333.975 119.5,325.5C 120.167,325.5 120.5,325.167 120.5,324.5 Z"/></g>
<g><path style="opacity:0.004" fill="#fefffe" d="M 200.5,330.5 C 201.833,331.167 201.833,331.167 200.5,330.5 Z"/></g>
<g><path style="opacity:0.006" fill="#e8e8e8" d="M 118.5,331.5 C 120.167,332.5 121.5,333.833 122.5,335.5C 119.5,335.833 118.167,334.5 118.5,331.5 Z"/></g>
<g><path style="opacity:0.004" fill="#fefffe" d="M 66.5,335.5 C 67.8333,336.167 67.8333,336.167 66.5,335.5 Z"/></g>
<g><path style="opacity:0.004" fill="#cacaca" d="M 122.5,335.5 C 123.5,335.833 124.167,336.5 124.5,337.5C 122.007,337.869 121.34,337.203 122.5,335.5 Z"/></g>
<g><path style="opacity:0.024" fill="#a9a9a9" d="M 140.5,336.5 C 141.5,336.833 142.167,337.5 142.5,338.5C 141.833,338.5 141.5,338.833 141.5,339.5C 140.5,339.167 139.833,338.5 139.5,337.5C 140.167,337.5 140.5,337.167 140.5,336.5 Z"/></g>
<g><path style="opacity:0.596" fill="#888888" d="M 310.5,337.5 C 309.738,339.262 308.404,340.262 306.5,340.5C 307.262,338.738 308.596,337.738 310.5,337.5 Z"/></g>
<g><path style="opacity:0.659" fill="#8b8b8b" d="M 306.5,340.5 C 306.027,341.906 305.027,342.573 303.5,342.5C 303.973,341.094 304.973,340.427 306.5,340.5 Z"/></g>
<g><path style="opacity:0.102" fill="#cfcfcf" d="M 303.5,342.5 C 303.167,343.5 302.5,344.167 301.5,344.5C 301.5,343.167 302.167,342.5 303.5,342.5 Z"/></g>
<g><path style="opacity:0.999" fill="#3b3b3b" d="M 321.5,344.5 C 313.755,352.652 305.421,359.319 296.5,364.5C 295.609,365.11 294.609,365.443 293.5,365.5C 292.29,365.932 291.29,366.599 290.5,367.5C 289.448,367.649 288.448,367.483 287.5,367C 289.747,365.723 291.747,364.223 293.5,362.5C 295.674,362.25 297.341,361.25 298.5,359.5C 304.557,356.471 309.891,352.471 314.5,347.5C 316.127,345.37 317.96,343.37 320,341.5C 320.617,342.449 320.451,343.282 319.5,344C 320.094,344.464 320.761,344.631 321.5,344.5 Z"/></g>
<g><path style="opacity:0.075" fill="#bebfbf" d="M 142.5,338.5 C 148.022,343.416 153.689,348.083 159.5,352.5C 160.167,352.5 160.5,352.833 160.5,353.5C 161.492,353.328 162.158,353.662 162.5,354.5C 161.833,354.5 161.5,354.833 161.5,355.5C 154.064,351.117 147.397,345.784 141.5,339.5C 142.167,339.5 142.5,339.167 142.5,338.5 Z"/></g>
<g><path style="opacity:0.525" fill="#919191" d="M 301.5,344.5 C 300.738,346.262 299.404,347.262 297.5,347.5C 298.262,345.738 299.596,344.738 301.5,344.5 Z"/></g>
<g><path style="opacity:0.006" fill="#dddddd" d="M 132.5,345.5 C 133.5,345.833 134.167,346.5 134.5,347.5C 132.007,347.869 131.34,347.203 132.5,345.5 Z"/></g>
<g><path style="opacity:0.745" fill="#9f9f9f" d="M 162.5,347.5 C 163.71,347.932 164.71,348.599 165.5,349.5C 163.821,349.715 162.821,349.048 162.5,347.5 Z"/></g>
<g><path style="opacity:0.722" fill="#8f8f8f" d="M 139.5,351.5 C 141.404,351.738 142.738,352.738 143.5,354.5C 141.596,354.262 140.262,353.262 139.5,351.5 Z"/></g>
<g><path style="opacity:0.761" fill="#858585" d="M 143.5,354.5 C 145.027,354.427 146.027,355.094 146.5,356.5C 144.973,356.573 143.973,355.906 143.5,354.5 Z"/></g>
<g><path style="opacity:0.006" fill="#e7e7e7" d="M 284.5,355.5 C 284.158,356.338 283.492,356.672 282.5,356.5C 282.409,354.302 283.075,353.969 284.5,355.5 Z"/></g>
<g><path style="opacity:0.094" fill="#b5b5b5" d="M 314.5,347.5 C 309.891,352.471 304.557,356.471 298.5,359.5C 298.5,359.167 298.5,358.833 298.5,358.5C 303.825,354.836 309.158,351.17 314.5,347.5 Z"/></g>
<g><path style="opacity:0.059" fill="#bababa" d="M 162.5,354.5 C 163.492,354.328 164.158,354.662 164.5,355.5C 163.833,355.5 163.5,355.833 163.5,356.5C 162.508,356.672 161.842,356.338 161.5,355.5C 162.167,355.5 162.5,355.167 162.5,354.5 Z"/></g>
<g><path style="opacity:0.259" fill="#d3d3d3" d="M 282.5,356.5 C 281.486,357.674 280.153,358.34 278.5,358.5C 279.287,356.896 280.62,356.229 282.5,356.5 Z"/></g>
<g><path style="opacity:0.004" fill="#fefffe" d="M 13.5,358.5 C 14.8333,359.167 14.8333,359.167 13.5,358.5 Z"/></g>
<g><path style="opacity:0.012" fill="#c0c0c0" d="M 297.5,358.5 C 297.5,359.167 297.833,359.5 298.5,359.5C 297.341,361.25 295.674,362.25 293.5,362.5C 293.5,361.833 293.167,361.5 292.5,361.5C 293.29,360.599 294.29,359.932 295.5,359.5C 295.842,358.662 296.508,358.328 297.5,358.5 Z"/></g>
<g><path style="opacity:0.192" fill="#b7b7b7" d="M 175.5,362.5 C 175.5,362.167 175.5,361.833 175.5,361.5C 177.027,361.427 178.027,362.094 178.5,363.5C 177.833,363.5 177.167,363.5 176.5,363.5C 175.833,363.5 175.5,363.167 175.5,362.5 Z"/></g>
<g><path style="opacity:0.31" fill="#979797" d="M 157.5,363.5 C 159.027,363.427 160.027,364.094 160.5,365.5C 158.973,365.573 157.973,364.906 157.5,363.5 Z"/></g>
<g><path style="opacity:0.192" fill="#bababa" d="M 179.5,364.5 C 179.5,364.167 179.5,363.833 179.5,363.5C 181.027,363.427 182.027,364.094 182.5,365.5C 181.833,365.5 181.167,365.5 180.5,365.5C 179.833,365.5 179.5,365.167 179.5,364.5 Z"/></g>
<g><path style="opacity:0.576" fill="#858585" d="M 183.5,358.5 C 190.146,361.153 196.813,363.487 203.5,365.5C 201.374,366.103 199.041,366.103 196.5,365.5C 195.833,365.5 195.5,365.833 195.5,366.5C 192.188,365.18 188.855,363.846 185.5,362.5C 184.638,361.234 183.971,359.901 183.5,358.5 Z"/></g>
<g><path style="opacity:0.008" fill="#fefffe" d="M 296.5,364.5 C 297.833,365.167 297.833,365.167 296.5,364.5 Z"/></g>
<g><path style="opacity:0.373" fill="#878787" d="M 161.5,365.5 C 163.027,365.427 164.027,366.094 164.5,367.5C 162.973,367.573 161.973,366.906 161.5,365.5 Z"/></g>
<g><path style="opacity:0.006" fill="#c4c4c4" d="M 183.5,365.5 C 184.71,365.932 185.71,366.599 186.5,367.5C 186.5,367.833 186.5,368.167 186.5,368.5C 184.214,368.405 182.214,367.738 180.5,366.5C 181.791,366.737 182.791,366.404 183.5,365.5 Z"/></g>
<g><path style="opacity:0.006" fill="#e6e6e6" d="M 293.5,365.5 C 293.918,366.222 294.584,366.722 295.5,367C 293.866,367.494 292.199,367.66 290.5,367.5C 291.29,366.599 292.29,365.932 293.5,365.5 Z"/></g>
<g><path style="opacity:0.095" fill="#bababa" d="M 292.5,361.5 C 293.167,361.5 293.5,361.833 293.5,362.5C 291.747,364.223 289.747,365.723 287.5,367C 288.448,367.483 289.448,367.649 290.5,367.5C 289.329,368.345 287.995,369.011 286.5,369.5C 286.631,368.624 286.298,367.957 285.5,367.5C 276.654,372.044 267.321,375.044 257.5,376.5C 258.263,375.732 259.263,375.232 260.5,375C 259.263,374.768 258.263,374.268 257.5,373.5C 259.117,372.962 260.784,372.629 262.5,372.5C 264.657,371.593 266.99,370.927 269.5,370.5C 277.305,368.115 284.972,365.115 292.5,361.5 Z"/></g>
<g><path style="opacity:0.014" fill="#d2d2d2" d="M 188.5,368.5 C 188.5,368.167 188.5,367.833 188.5,367.5C 190.153,367.66 191.486,368.326 192.5,369.5C 192.5,369.833 192.5,370.167 192.5,370.5C 190.901,370.768 189.568,370.434 188.5,369.5C 189.833,369.167 189.833,368.833 188.5,368.5 Z"/></g>
<g><path style="opacity:0.004" fill="#fefffe" d="M 406.5,368.5 C 407.833,369.167 407.833,369.167 406.5,368.5 Z"/></g>
<g><path style="opacity:0.004" fill="#f2f2f2" d="M 285.5,369.5 C 286.679,371.409 286.346,371.742 284.5,370.5C 284.5,369.833 284.833,369.5 285.5,369.5 Z"/></g>
<g><path style="opacity:0.063" fill="#b8b8b8" d="M 193.5,369.5 C 194.791,369.263 195.791,369.596 196.5,370.5C 194.523,371.507 194.857,371.507 197.5,370.5C 198.167,370.5 198.5,370.833 198.5,371.5C 198.5,371.833 198.5,372.167 198.5,372.5C 195.99,372.946 193.99,372.28 192.5,370.5C 193.167,370.5 193.5,370.167 193.5,369.5 Z"/></g>
<g><path style="opacity:0.318" fill="#9c9c9c" d="M 276.5,359.5 C 276.918,360.222 277.584,360.722 278.5,361C 273.515,362.939 268.515,364.772 263.5,366.5C 262.833,365.167 262.167,365.167 261.5,366.5C 257.375,367.967 253.042,369.133 248.5,370C 240.167,370.333 231.833,370.667 223.5,371C 228.229,371.273 232.896,371.939 237.5,373C 226.716,373.2 216.05,372.366 205.5,370.5C 205.5,370.167 205.5,369.833 205.5,369.5C 202.449,368.368 199.449,367.368 196.5,366.5C 196.5,366.167 196.5,365.833 196.5,365.5C 199.041,366.103 201.374,366.103 203.5,365.5C 209.232,366.699 214.899,367.699 220.5,368.5C 232.846,369.979 237.179,369.979 233.5,368.5C 241.316,367.346 249.316,366.512 257.5,366C 261.891,364.819 266.224,363.486 270.5,362C 272.282,361.186 273.782,360.019 275,358.5C 275.383,359.056 275.883,359.389 276.5,359.5 Z"/></g>
<g><path style="opacity:0.661" fill="#626262" d="M 233.5,368.5 C 237.179,369.979 232.846,369.979 220.5,368.5C 224.808,367.35 229.141,367.35 233.5,368.5 Z"/></g>
<g><path style="opacity:0.006" fill="#e9e9e9" d="M 279.5,372.5 C 279.842,371.662 280.508,371.328 281.5,371.5C 282.504,373.677 281.838,374.011 279.5,372.5 Z"/></g>
<g><path style="opacity:0.084" fill="#a7a7a7" d="M 199.5,371.5 C 200.791,371.263 201.791,371.596 202.5,372.5C 202.833,373.833 203.167,373.833 203.5,372.5C 206.218,373.043 208.885,373.709 211.5,374.5C 211.833,375.833 212.167,375.833 212.5,374.5C 214.764,375.219 217.097,375.552 219.5,375.5C 219.5,375.833 219.5,376.167 219.5,376.5C 212.041,376.878 205.041,375.545 198.5,372.5C 199.167,372.5 199.5,372.167 199.5,371.5 Z"/></g>
<g><path style="opacity:0.302" fill="#585858" d="M 253.5,374.5 C 254.568,373.566 255.901,373.232 257.5,373.5C 258.263,374.268 259.263,374.768 260.5,375C 259.263,375.232 258.263,375.732 257.5,376.5C 256.609,377.11 255.609,377.443 254.5,377.5C 253.737,376.732 252.737,376.232 251.5,376C 253.167,375.667 254.833,375.333 256.5,375C 255.552,374.517 254.552,374.351 253.5,374.5 Z"/></g>
<g><path style="opacity:0.004" fill="#c6c6c6" d="M 273.5,374.5 C 274.209,373.596 275.209,373.263 276.5,373.5C 276.631,374.239 276.464,374.906 276,375.5C 275.329,374.748 274.496,374.414 273.5,374.5 Z"/></g>
<g><path style="opacity:0.004" fill="#fefffe" d="M 272.5,376.5 C 272.5,376.167 272.5,375.833 272.5,375.5C 275.167,375.833 275.167,376.167 272.5,376.5 Z"/></g>
<g><path style="opacity:0.42" fill="#989898" d="M 253.5,374.5 C 254.552,374.351 255.552,374.517 256.5,375C 254.833,375.333 253.167,375.667 251.5,376C 252.737,376.232 253.737,376.732 254.5,377.5C 252.5,377.5 250.5,377.5 248.5,377.5C 246.167,376.833 243.833,376.167 241.5,375.5C 245.534,375.495 249.534,375.162 253.5,374.5 Z"/></g>
<g><path style="opacity:0.01" fill="#f0f0f0" d="M 270.5,375.5 C 270.842,376.338 271.508,376.672 272.5,376.5C 270.786,377.738 268.786,378.405 266.5,378.5C 266.5,378.167 266.5,377.833 266.5,377.5C 267.492,377.672 268.158,377.338 268.5,376.5C 268.842,375.662 269.508,375.328 270.5,375.5 Z"/></g>
<g><path style="opacity:0.006" fill="#f7f7f7" d="M 193.5,377.5 C 194.492,377.328 195.158,377.662 195.5,378.5C 194.749,379.573 193.749,379.74 192.5,379C 193.056,378.617 193.389,378.117 193.5,377.5 Z"/></g>
<g><path style="opacity:0.004" fill="#fefffe" d="M 401.5,377.5 C 402.833,378.167 402.833,378.167 401.5,377.5 Z"/></g>
<g><path style="opacity:0.698" fill="#4c4c4c" d="M 219.5,376.5 C 219.5,376.167 219.5,375.833 219.5,375.5C 226.862,376.647 234.196,376.647 241.5,375.5C 243.833,376.167 246.167,376.833 248.5,377.5C 243.706,378.888 238.706,379.388 233.5,379C 235.5,378.667 237.5,378.333 239.5,378C 232.809,377.665 226.143,377.165 219.5,376.5 Z"/></g>
<g><path style="opacity:0.004" fill="#fefffe" d="M 177.5,380.5 C 178.833,381.167 178.833,381.167 177.5,380.5 Z"/></g>
<g><path style="opacity:0.024" fill="#d9d9d9" d="M 262.5,377.5 C 263.568,378.434 264.901,378.768 266.5,378.5C 255.98,382.701 244.98,384.201 233.5,383C 236.833,382.667 240.167,382.333 243.5,382C 242.207,381.51 240.873,381.343 239.5,381.5C 242.287,380.523 245.287,380.19 248.5,380.5C 248.833,381.833 249.167,381.833 249.5,380.5C 250.209,379.596 251.209,379.263 252.5,379.5C 254.257,380.769 255.257,380.769 255.5,379.5C 257.599,378.388 259.933,377.721 262.5,377.5 Z"/></g>
<g><path style="opacity:0.129" fill="#e5e5e5" d="M 227.5,381.5 C 228.5,381.5 229.5,381.5 230.5,381.5C 229.5,384.167 228.5,384.167 227.5,381.5 Z"/></g>
<g><path style="opacity:0.008" fill="#fefffe" d="M 223.5,382.5 C 219.354,383.647 215.02,383.814 210.5,383C 214.821,382.501 219.154,382.334 223.5,382.5 Z"/></g>
<g><path style="opacity:0.004" fill="#fefffe" d="M 48.5,385.5 C 49.8333,386.167 49.8333,386.167 48.5,385.5 Z"/></g>
<g><path style="opacity:0.004" fill="#fefffe" d="M 268.5,385.5 C 269.833,386.167 269.833,386.167 268.5,385.5 Z"/></g>
<g><path style="opacity:0.004" fill="#fefffe" d="M 95.5,394.5 C 96.8333,395.167 96.8333,395.167 95.5,394.5 Z"/></g>
<g><path style="opacity:0.004" fill="#fefffe" d="M 292.5,402.5 C 293.833,403.167 293.833,403.167 292.5,402.5 Z"/></g>
<g><path style="opacity:0.004" fill="#fefffe" d="M 21.5,424.5 C 22.8333,425.167 22.8333,425.167 21.5,424.5 Z"/></g>
<g><path style="opacity:0.004" fill="#fefffe" d="M 306.5,424.5 C 307.833,425.167 307.833,425.167 306.5,424.5 Z"/></g>
<g><path style="opacity:0.004" fill="#fefffe" d="M 400.5,424.5 C 401.833,425.167 401.833,425.167 400.5,424.5 Z"/></g>
<g><path style="opacity:0.004" fill="#fefffe" d="M 202.5,429.5 C 203.833,430.167 203.833,430.167 202.5,429.5 Z"/></g>
<g><path style="opacity:0.004" fill="#fefffe" d="M 439.5,434.5 C 440.833,435.167 440.833,435.167 439.5,434.5 Z"/></g>
<g><path style="opacity:0.004" fill="#fefffe" d="M 15.5,435.5 C 16.8333,436.167 16.8333,436.167 15.5,435.5 Z"/></g>
<g><path style="opacity:0.004" fill="#fefffe" d="M 20.5,439.5 C 21.8333,440.167 21.8333,440.167 20.5,439.5 Z"/></g>
<g><path style="opacity:0.004" fill="#fefffe" d="M 190.5,450.5 C 191.833,451.167 191.833,451.167 190.5,450.5 Z"/></g>
<g><path style="opacity:0.004" fill="#fefffe" d="M 357.5,450.5 C 358.833,451.167 358.833,451.167 357.5,450.5 Z"/></g>
<g><path style="opacity:0.004" fill="#fefffe" d="M 158.5,451.5 C 159.833,452.167 159.833,452.167 158.5,451.5 Z"/></g>
<g><path style="opacity:0.004" fill="#fefffe" d="M 239.5,459.5 C 238.833,458.167 238.833,458.167 239.5,459.5 Z"/></g>
</svg>
