<svg width="128" height="128" viewBox="0 0 128 128" fill="none" xmlns="http://www.w3.org/2000/svg">
<path fill-rule="evenodd" clip-rule="evenodd" d="M128 16C128 7.16925 120.831 0 112 0H16C7.16925 0 0 7.16925 0 16V112C0 120.831 7.16925 128 16 128H112C120.831 128 128 120.831 128 112V16Z" fill="#2867B2"/>
<path d="M36.69 44.6875H15.25V109.178H36.69V44.6875Z" fill="white"/>
<path d="M26.128 13.5625C18.7928 13.5625 14 18.385 14 24.7057C14 30.8937 18.647 35.8492 25.8442 35.8492H25.9827C33.4585 35.8492 38.1118 30.8937 38.1118 24.7057C37.973 18.385 33.459 13.5625 26.128 13.5625V13.5625Z" fill="white"/>
<path d="M89.316 43.125C77.9435 43.125 72.8495 49.3793 69.997 53.7722V44.6415H48.5625C48.8467 50.6908 48.5625 109.132 48.5625 109.132H69.9967V73.1157C69.9967 71.188 70.1352 69.2607 70.7035 67.883C72.2505 64.033 75.7797 60.045 81.7017 60.045C89.4547 60.045 92.5607 65.961 92.5607 74.6267V109.132H113.996V72.1492C113.996 52.34 103.42 43.125 89.316 43.125V43.125Z" fill="white"/>
</svg>
