<svg width="128" height="128" viewBox="0 0 128 128" fill="none" xmlns="http://www.w3.org/2000/svg">
<path d="M128 112C128 120.8 120.8 128 112 128H16C7.2 128 0 120.8 0 112V16C0 7.2 7.2 0 16 0H112C120.8 0 128 7.2 128 16V112Z" fill="#3C579E"/>
<path d="M68.8772 128V78.188H51.0972V60.425H68.8812V44.029C68.8812 27.492 78.6452 17.75 93.3952 17.75C100.463 17.75 106.229 18.506 108 18.741V37.314L96.1262 37.309C88.1042 37.309 86.6032 41.288 86.6032 46.881V60.425H107.159L104.255 78.188H86.6032V128H68.8772Z" fill="white"/>
</svg>
