<svg width="128" height="128" viewBox="0 0 128 128" fill="none" xmlns="http://www.w3.org/2000/svg">
<path d="M64 126C98.2 126 126 98.2 126 64C126 29.8 98.2 2 64 2C29.8 2 2 29.8 2 64C2 98.2 29.8 126 64 126ZM16 88.7L41.2 88.5C44 98.6 48.7 108.4 55.1 117.2C38 114.4 23.7 103.5 16 88.7ZM47.6 47H79C81.3 58 81.3 69.3 79.2 80.3L47.6 80.5C45.3 69.4 45.3 58 47.6 47ZM63.3 114.9C57 106.8 52.4 97.9 49.6 88.5L77.1 88.3C74.2 97.7 69.6 106.7 63.3 114.9ZM71.3 117.5C77.9 108.5 82.6 98.6 85.4 88.2L112.3 88C104.5 103.7 89.3 115 71.3 117.5ZM118 64C118 69.6 117.1 75 115.6 80L87.3 80.2C89.3 69.2 89.2 58 87.1 47H115.2C117 52.3 118 58.1 118 64ZM111.8 39H85.2C82.3 29 77.7 19.3 71.3 10.5C89 12.9 103.9 23.8 111.8 39ZM76.9 39H49.7C52.6 29.8 57.1 21.1 63.3 13.1C69.5 21.1 74 29.8 76.9 39ZM55.1 10.8C48.8 19.5 44.2 29 41.4 39H16.2C23.9 24.3 38.1 13.6 55.1 10.8ZM39.5 47C37.4 58.1 37.4 69.4 39.4 80.5L12.7 80.7C10.9 75.4 10 69.8 10 64C10 58.1 11 52.3 12.8 47H39.5Z" fill="black" fill-opacity="0.6"/>
</svg>
