<svg width="128" height="128" viewBox="0 0 128 128" fill="none" xmlns="http://www.w3.org/2000/svg">
<path d="M128 64C128 99.35 99.35 128 64 128C28.65 128 0 99.35 0 64C0 28.65 28.65 0 64 0C99.35 0 128 28.65 128 64Z" fill="#CD201F"/>
<path d="M97.775 48.6502C97.2 43.6752 96 42.2252 95.15 41.5502C93.8 40.5002 91.3499 40.1252 88.0749 39.9002C82.8249 39.5502 73.9 39.3252 64.275 39.3252C54.625 39.3252 45.7249 39.5252 40.4749 39.9002C37.1999 40.1252 34.75 40.5002 33.4 41.5502C32.55 42.2252 31.375 43.6752 30.775 48.6502C29.925 55.8252 29.925 72.1752 30.775 79.3502C31.375 84.3252 32.55 85.7752 33.4 86.4502C34.75 87.5002 37.1999 87.8752 40.4749 88.1002C45.7249 88.4502 54.625 88.6752 64.275 88.6752C73.925 88.6752 82.8249 88.4502 88.0749 88.1002C91.3499 87.8752 93.8 87.5002 95.15 86.4502C96 85.8002 97.175 84.3252 97.775 79.3502C98.625 72.1752 98.625 55.8252 97.775 48.6502ZM56.025 74.7252V53.2502L76.625 63.9752L56.025 74.7252Z" fill="white"/>
</svg>
